<?xml version="1.0" encoding="UTF-8"?>
<svg version="1.1" xmlns="http://www.w3.org/2000/svg" width="900" height="850">
<path d="M0 0 C297 0 594 0 900 0 C900 280.5 900 561 900 850 C603 850 306 850 0 850 C0 569.5 0 289 0 0 Z " fill="#000000" transform="translate(0,0)"/>
<path d="M0 0 C0.66 0 1.32 0 2 0 C3.27490234 1.75683594 3.27490234 1.75683594 4.7109375 4.234375 C5.24299805 5.15154297 5.77505859 6.06871094 6.32324219 7.01367188 C9.15566148 12.05824857 11.90351413 17.1448626 14.625 22.25 C15.86797349 24.57058901 17.11147115 26.89089732 18.35546875 29.2109375 C18.97083496 30.35916992 19.58620117 31.50740234 20.22021484 32.69042969 C22.7696802 37.4312462 25.35204182 42.15374765 27.9375 46.875 C37.18306574 63.78788573 46.30901421 80.76635004 55.1875 97.875 C59.40000687 105.99200248 63.72316532 114.03947072 68.125 122.05517578 C72.8872359 130.74718642 77.541695 139.49540347 82.1875 148.25 C82.76073502 149.329897 82.76073502 149.329897 83.34555054 150.43161011 C84.43270073 152.48017806 85.51928635 154.52904376 86.60546875 156.578125 C87.09835388 157.50779839 87.09835388 157.50779839 87.60119629 158.45625305 C90.89372698 164.67432484 92.17861389 168.9644695 90.15234375 175.90234375 C88.9962458 179.12894463 87.76831585 182.31587974 86.5 185.5 C86.07074219 186.60859375 85.64148438 187.7171875 85.19921875 188.859375 C84.14465611 191.57780314 83.07806294 194.29082529 82 197 C81.01 197 80.02 197 79 197 C78.71914551 196.4330542 78.43829102 195.8661084 78.14892578 195.28198242 C76.80998301 192.5826412 75.46747714 189.8850851 74.125 187.1875 C73.68414063 186.29740234 73.24328125 185.40730469 72.7890625 184.49023438 C69.73618639 178.36328163 66.58023473 172.29799982 63.375 166.25 C57.35174132 154.86591754 51.61525194 143.34111162 45.875 131.8125 C44.8126901 129.68284787 43.7501911 127.55329006 42.6875 125.42382812 C40.12282807 120.2836328 37.56045784 115.14229565 35 110 C35.24768631 110.59087402 35.49537262 111.18174805 35.75056458 111.79052734 C41.41216973 125.30036497 46.98871626 138.84309142 52.52545166 152.4045105 C68.84179842 192.36090015 68.84179842 192.36090015 85.90631104 232.00131226 C87.05577925 234.6097489 88.19875823 237.22092526 89.33935547 239.83325195 C90.08947251 241.55031294 90.83963499 243.26735408 91.58984375 244.984375 C91.95779053 245.82703415 92.3257373 246.6696933 92.70483398 247.53788757 C94.82307569 252.37168829 96.99509083 257.17577047 99.2179718 261.96228027 C107.81425294 280.55701981 112.38756271 295.16261208 110 316 C105.40333023 314.24310334 101.46319322 311.98690921 97.3125 309.375 C96.60714111 308.9313208 95.90178223 308.4876416 95.17504883 308.03051758 C77.33134284 296.64799122 71.72791943 282.74666718 63.43359375 263.9296875 C56.67586129 248.60853819 49.90372548 233.32703783 42.45483398 218.32568359 C41.99536377 217.39191895 41.53589355 216.4581543 41.0625 215.49609375 C40.66160156 214.69357178 40.26070312 213.8910498 39.84765625 213.06420898 C39 211 39 211 39 208 C36.10347128 208.26445214 33.20794971 208.53663945 30.3125 208.8125 C29.53455078 208.88275391 28.75660156 208.95300781 27.95507812 209.02539062 C21.69096671 209.63003458 15.48205153 210.49801099 9.2578125 211.4140625 C-2.27671759 213.10141752 -13.84467153 214.35278868 -25.4375 215.5625 C-40.29457428 217.07106371 -40.29457428 217.07106371 -55.09765625 219.01953125 C-63.44804936 220.26637163 -71.8415007 221.05343693 -80.24365234 221.85986328 C-83.02357698 222.1272679 -85.80280491 222.40122353 -88.58203125 222.67578125 C-90.36714989 222.84934556 -92.1523049 223.02253632 -93.9375 223.1953125 C-94.75943848 223.27653351 -95.58137695 223.35775452 -96.42822266 223.44143677 C-100.63776643 223.84124936 -104.76511931 224.0875186 -109 224 C-109 224.66 -109 225.32 -109 226 C-108.34 226 -107.68 226 -107 226 C-105.73046875 227.40625 -105.73046875 227.40625 -104.1875 229.5 C-100.74218404 234.06252092 -97.1776741 238.50958427 -93.5625 242.9375 C-92.41906002 244.34097411 -91.27582728 245.74461708 -90.1328125 247.1484375 C-89.59043945 247.81456055 -89.04806641 248.48068359 -88.48925781 249.16699219 C-86.62841667 251.45735208 -84.78004055 253.75739697 -82.9375 256.0625 C-82.33421875 256.81660156 -81.7309375 257.57070313 -81.109375 258.34765625 C-79.38402829 260.51711998 -77.66724589 262.69277549 -75.953125 264.87109375 C-74.86460427 266.24741239 -73.7760626 267.62371447 -72.6875 269 C-72.1711499 269.66008057 -71.6547998 270.32016113 -71.12280273 271.00024414 C-70.63239502 271.61891357 -70.1419873 272.23758301 -69.63671875 272.875 C-69.20061279 273.42929687 -68.76450684 273.98359375 -68.31518555 274.5546875 C-65.62179249 277.51456998 -63.19960323 278.30834757 -59.38671875 278.81640625 C-58.00709961 279.00299805 -58.00709961 279.00299805 -56.59960938 279.19335938 C-55.63861328 279.31517578 -54.67761719 279.43699219 -53.6875 279.5625 C-52.30981445 279.75102539 -52.30981445 279.75102539 -50.90429688 279.94335938 C-37.127353 281.75936785 -23.48993967 282.16186706 -9.6159668 282.13037109 C-6.83441636 282.12504199 -4.05302974 282.13033173 -1.27148438 282.13671875 C0.56250043 282.13635358 2.39648529 282.13505685 4.23046875 282.1328125 C5.12708221 282.13347717 6.02369568 282.13414185 6.94747925 282.13482666 C11.46456125 282.11347365 15.92021625 281.96001144 20.42041016 281.55761719 C21.71643913 281.45004593 21.71643913 281.45004593 23.03865051 281.34030151 C24.66679272 281.19569863 26.2928805 281.02454185 27.9148407 280.822052 C30.12231445 280.62841797 30.12231445 280.62841797 34 281 C38.13860122 284.75064094 40.10025073 288.85231967 42.3203125 293.984375 C42.61642426 294.66010559 42.91253601 295.33583618 43.21762085 296.03204346 C43.85860761 297.49751701 44.4951517 298.96494021 45.12768555 300.43408203 C46.5064479 303.63578086 47.90716887 306.82772369 49.30670166 310.02038574 C50.0520167 311.72085262 50.79625988 313.42178966 51.53948975 315.12316895 C55.3791215 323.90234514 59.33283178 332.62869153 63.29693604 341.35220337 C69.67737833 355.39477642 76.0028846 369.46012376 82.25 383.5625 C95.20635846 412.79884116 108.45820995 441.90549171 122.16796875 470.796875 C128.91650347 485.02117473 135.64938642 499.24552826 142.0625 513.625 C142.56918213 514.75687744 143.07586426 515.88875488 143.59790039 517.05493164 C144.05156982 518.08094482 144.50523926 519.10695801 144.97265625 520.1640625 C145.36718994 521.05561035 145.76172363 521.9471582 146.16821289 522.86572266 C147 525 147 525 147 527 C136.66387879 526.69262762 126.98346898 523.91035194 117.0625 521.25 C115.70896927 520.89151474 115.70896927 520.89151474 114.32809448 520.52578735 C89.22610475 513.87614641 64.30841118 506.52098775 39.53515625 498.73828125 C38.75104874 498.49272995 37.96694122 498.24717865 37.15907288 497.9941864 C32.56341379 496.54045268 28.08724313 494.9282139 23.640625 493.0625 C15.1000283 489.62604689 6.30769872 486.74116836 -2.4375 483.875 C-7.72166973 482.12793033 -12.85202254 480.10970505 -18 478 C-20.20813635 477.12450303 -22.4164921 476.2495593 -24.625 475.375 C-49.76098049 465.32386798 -74.37035037 454.38017306 -98.64691162 442.40670776 C-100.37276475 441.55693279 -102.100495 440.71095884 -103.83013916 439.868927 C-106.27317242 438.67734097 -108.70767085 437.46981916 -111.140625 436.2578125 C-112.2421843 435.72547752 -112.2421843 435.72547752 -113.36599731 435.18238831 C-120.90648736 431.37961006 -123.6047086 426.22536789 -126.58203125 418.58984375 C-126.9134613 417.76148514 -127.24489136 416.93312653 -127.58636475 416.07966614 C-128.66954551 413.36864648 -129.7410937 410.65319197 -130.8125 407.9375 C-132.32410686 404.13771504 -133.84137582 400.34020385 -135.359375 396.54296875 C-135.74287613 395.58153961 -136.12637726 394.62011047 -136.52149963 393.62954712 C-139.09499624 387.19754293 -141.74362336 380.80160073 -144.453125 374.42578125 C-144.80312057 373.59968857 -145.15311615 372.77359589 -145.51371765 371.92247009 C-146.85491867 368.75928024 -148.19671617 365.59656859 -149.55947876 362.44259644 C-150.48766794 360.29365799 -151.40304218 358.13964687 -152.31640625 355.984375 C-152.83662354 354.77491211 -153.35684082 353.56544922 -153.89282227 352.31933594 C-155.01900441 348.94302449 -155.32980214 346.52821888 -155 343 C-153.609375 340.4296875 -153.609375 340.4296875 -151.75 337.875 C-143.44468597 325.25698741 -141.60456583 310.74311834 -144.39550781 295.89599609 C-147.56045065 283.86096795 -155.7803922 273.02766011 -166.34375 266.56640625 C-177.20280438 260.77605605 -187.90629691 259.47330282 -200 259 C-189.80329267 225.34046102 -160.8387471 194.89068546 -138.37695312 168.61523438 C-136.95878654 166.95165457 -135.54924683 165.28104124 -134.140625 163.609375 C-127.22500542 155.43218434 -120.01512311 147.57677987 -112.67089844 139.78417969 C-110.10779234 137.04730368 -107.58569344 134.27362028 -105.0625 131.5 C-101.65784239 127.77132666 -98.18905188 124.15263776 -94.5859375 120.6171875 C-92.93180377 118.93046 -91.40555638 117.17433702 -89.875 115.375 C-86.10560897 110.99159052 -82.01471313 106.95702578 -77.88232422 102.91943359 C-75.06320711 100.14502343 -72.38226045 97.32032285 -69.8125 94.3125 C-64.54187206 88.21304685 -58.70475717 82.64838953 -52.97021484 76.99072266 C-47.66534245 71.7505646 -42.45990884 66.49927553 -37.61425781 60.82373047 C-35.37072141 58.28906366 -32.94820279 55.96731541 -30.50756836 53.62426758 C-15.39453845 39.07961773 -6.81250858 22.98484024 -1 3 C-0.67 2.01 -0.34 1.02 0 0 Z " fill="#BEB168" transform="translate(583,289)"/>
<path d="M0 0 C1.23274658 0.00080566 2.46549316 0.00161133 3.7355957 0.00244141 C5.61855347 0.0036499 5.61855347 0.0036499 7.53955078 0.00488281 C15.84371472 0.0582387 24.0847349 0.37862488 32.3605957 1.06494141 C33.31973877 1.14333252 34.27888184 1.22172363 35.26708984 1.30249023 C41.04387609 1.83517418 46.53570157 2.81946153 52.1730957 4.18994141 C50.0415654 10.93978737 47.49320154 17.47612065 44.84545898 24.03759766 C21.77678571 81.20904771 7.98101225 140.14759965 0.1730957 201.18994141 C-11.80836 201.38037514 -23.53288334 200.88989689 -35.4519043 199.68994141 C-36.95964172 199.54462907 -38.46745443 199.40009567 -39.9753418 199.25634766 C-43.59343475 198.90978061 -47.21041842 198.55294159 -50.8269043 198.18994141 C-51.05287326 184.6788805 -50.35124654 171.34628157 -49.3269043 157.87744141 C-47.99361589 140.5546702 -47.99361589 140.5546702 -47.8269043 123.18994141 C-49.67236739 133.92680791 -51.17666277 144.66812288 -52.36206055 155.49853516 C-52.48793549 156.64859039 -52.61381042 157.79864563 -52.74349976 158.98355103 C-53.26106602 163.75098712 -53.77193931 168.51910126 -54.27734375 173.2878418 C-54.65317516 176.81715218 -55.03831652 180.34535146 -55.42456055 183.87353516 C-55.53606949 184.95259628 -55.64757843 186.03165741 -55.76246643 187.14341736 C-55.87275681 188.14288895 -55.98304718 189.14236053 -56.09667969 190.17211914 C-56.18977921 191.04746811 -56.28287872 191.92281708 -56.37879944 192.82469177 C-56.85460818 195.3361719 -57.36772804 197.08487985 -58.8269043 199.18994141 C-61.92731617 199.73506877 -64.76321282 200.02549455 -67.8894043 200.18994141 C-109.76621255 203.34032012 -152.16467615 215.42615296 -187.50292969 238.68798828 C-188.90142902 239.59195008 -190.36025144 240.4013498 -191.8269043 241.18994141 C-192.8169043 240.85994141 -193.8069043 240.52994141 -194.8269043 240.18994141 C-195.77490234 237.6875 -195.77490234 237.6875 -196.58862305 234.33837891 C-197.05353149 232.48950073 -197.05353149 232.48950073 -197.52783203 230.60327148 C-197.7684285 229.61564316 -197.7684285 229.61564316 -198.0138855 228.60806274 C-198.85889457 225.15872962 -199.75523087 221.72298339 -200.6550293 218.28759766 C-200.83601669 217.59597031 -201.01700409 216.90434296 -201.20347595 216.1917572 C-205.64481875 199.41075054 -212.02384721 183.66961715 -219.8269043 168.18994141 C-219.22623193 170.96157177 -218.62142906 173.73220112 -218.0144043 176.50244141 C-217.7659375 177.65196289 -217.7659375 177.65196289 -217.51245117 178.82470703 C-216.58474089 183.0431632 -215.5586616 187.20570951 -214.3815918 191.36181641 C-210.05206966 207.01575773 -207.15257012 223.58296091 -205.0769043 239.68994141 C-204.95436279 240.4645874 -204.83182129 241.2392334 -204.70556641 242.03735352 C-204.37071237 245.10942467 -204.40167803 247.48604069 -206.02124023 250.16699219 C-208.54260638 253.20513551 -211.30151628 255.8475327 -214.5769043 258.06494141 C-218.68774886 261.01571809 -222.39221049 264.29101713 -226.11987305 267.70947266 C-228.00155457 269.43366857 -229.9014711 271.13808859 -231.81518555 272.82666016 C-237.86733782 278.1942626 -243.12200044 283.65576169 -248.0847168 290.07275391 C-249.8269043 292.18994141 -249.8269043 292.18994141 -251.8269043 293.18994141 C-252.19299805 292.58150391 -252.5590918 291.97306641 -252.9362793 291.34619141 C-261.24895442 277.88757454 -270.83884786 265.56033566 -281.8269043 254.18994141 C-282.96579102 252.99111328 -282.96579102 252.99111328 -284.12768555 251.76806641 C-304.25206413 231.03602452 -329.56652704 217.49637785 -355.8269043 206.18994141 C-355.36313405 200.94454003 -353.40206741 197.41888033 -350.4519043 193.18994141 C-350.00637207 192.53840088 -349.56083984 191.88686035 -349.10180664 191.21557617 C-337.86405042 174.98609252 -324.75153032 160.18729505 -311.30151367 145.77783203 C-309.32980337 143.65465259 -307.38003808 141.51190321 -305.42993164 139.36889648 C-299.27275016 132.6095898 -293.03272538 126.14222096 -286.0925293 120.18212891 C-283.46432813 117.87112443 -280.93605934 115.4654769 -278.3894043 113.06494141 C-269.28456341 104.59120278 -259.25042059 96.97012834 -248.8269043 90.18994141 C-245.4526487 91.56910848 -244.14850954 92.80183654 -242.5300293 96.04931641 C-242.13267578 96.82839355 -241.73532227 97.6074707 -241.32592773 98.41015625 C-240.91375 99.24498535 -240.50157227 100.07981445 -240.0769043 100.93994141 C-239.19364576 102.67801898 -238.30820973 104.41499163 -237.4206543 106.15087891 C-236.98366211 107.00907227 -236.54666992 107.86726563 -236.09643555 108.75146484 C-234.36045012 112.08589224 -232.48426772 115.32653347 -230.5769043 118.56494141 C-226.88204412 124.93331829 -223.7834572 131.44810487 -220.8269043 138.18994141 C-223.18751869 130.20607485 -225.66920104 122.2610153 -228.16088867 114.31738281 C-228.8281839 112.18585399 -229.49213369 110.05331101 -230.1550293 107.92041016 C-230.3708667 107.22681396 -230.5867041 106.53321777 -230.80908203 105.81860352 C-231.23371922 104.45373281 -231.65772222 103.08866462 -232.08105469 101.72338867 C-233.20221927 98.12442789 -234.38583625 94.55716019 -235.6394043 91.00244141 C-237.55043819 84.86701681 -237.55043819 84.86701681 -236.8269043 82.18994141 C-232.07236463 77.17342068 -226.0628431 73.62291856 -220.2019043 70.06494141 C-219.2838501 69.50363525 -218.3657959 68.9423291 -217.41992188 68.36401367 C-195.29297339 54.91045156 -172.65683321 42.86315144 -148.8894043 32.56494141 C-147.72272217 32.05576172 -146.55604004 31.54658203 -145.35400391 31.02197266 C-139.20706598 28.40469911 -133.40628179 26.37604339 -126.8269043 25.18994141 C-126.48079102 26.71748047 -126.48079102 26.71748047 -126.12768555 28.27587891 C-124.14997692 36.89568388 -121.99596212 45.43988569 -119.578125 53.94726562 C-118.23490542 58.67491979 -116.99747572 63.4163726 -115.8269043 68.18994141 C-115.96790844 64.25225331 -116.11561362 60.31484236 -116.2644043 56.37744141 C-116.3037207 55.27722656 -116.34303711 54.17701172 -116.38354492 53.04345703 C-116.62109848 46.84879106 -117.01876143 40.70606854 -117.61962891 34.53637695 C-117.85686946 31.8507245 -117.92846885 29.19789559 -117.8894043 26.50244141 C-117.88038086 25.67357422 -117.87135742 24.84470703 -117.86206055 23.99072266 C-117.8446582 23.09933594 -117.8446582 23.09933594 -117.8269043 22.18994141 C-105.36977821 18.04705719 -92.89063201 14.60904139 -80.08642578 11.71484375 C-78.12444801 11.25906285 -76.17357332 10.75598685 -74.2253418 10.24462891 C-68.1543227 8.71147414 -61.97848375 7.62771465 -55.82617188 6.47558594 C-53.63336948 6.06380815 -51.44206546 5.64461568 -49.25073242 5.22509766 C-47.84521859 4.96032246 -46.43962236 4.69598419 -45.03393555 4.43212891 C-43.7704126 4.19349121 -42.50688965 3.95485352 -41.20507812 3.70898438 C-38.33229846 3.26759321 -35.72273997 3.08024805 -32.8269043 3.18994141 C-32.67929352 9.80558823 -33.20149947 16.03043292 -34.2019043 22.56494141 C-34.33910889 23.49685303 -34.47631348 24.42876465 -34.61767578 25.38891602 C-35.28548508 29.86382586 -36.00737649 34.31407751 -36.8894043 38.75244141 C-39.22202831 51.02321985 -40.1862492 63.71814655 -39.8269043 76.18994141 C-37.60069258 70.68858406 -35.42586966 65.16971606 -33.3034668 59.62744141 C-27.74631401 45.12106937 -22.0497691 30.68142694 -16.1394043 16.31494141 C-15.82972717 15.56003418 -15.52005005 14.80512695 -15.20098877 14.02734375 C-14.32546915 11.89535989 -13.44615591 9.76499035 -12.56518555 7.63525391 C-12.17069466 6.67499802 -12.17069466 6.67499802 -11.76823425 5.69534302 C-8.99460133 -0.97400782 -6.98013801 0.04448151 0 0 Z " fill="#BEB068" transform="translate(546.826904296875,37.81005859375)"/>
<path d="M0 0 C-0.36689453 7.99830074 -1.83942949 15.67564667 -3.54003906 23.47753906 C-5.41982217 32.32833093 -6.04555795 40.96966407 -6.0703125 50.01171875 C-6.08556099 52.1709856 -6.10174201 54.33024373 -6.11816406 56.48950195 C-6.12273808 57.96021097 -6.1164739 59.43099189 -6.09960938 60.90161133 C-5.96438256 74.76082322 -5.96438256 74.76082322 -10.27734375 79.734375 C-11.48970134 80.85460205 -12.7282876 81.94763735 -14 83 C-15.17369141 84.23943359 -15.17369141 84.23943359 -16.37109375 85.50390625 C-17.05300781 86.18324219 -17.73492188 86.86257813 -18.4375 87.5625 C-19.45650391 88.58537109 -19.45650391 88.58537109 -20.49609375 89.62890625 C-22.41354099 91.44464802 -24.34765849 93.15033451 -26.35742188 94.85742188 C-32.43993977 100.17072527 -38.08294116 105.93898588 -43.78515625 111.65234375 C-45.01234122 112.87885354 -46.23967447 114.10521498 -47.46714783 115.33143616 C-50.02798381 117.89080528 -52.58702171 120.45195493 -55.14477539 123.0144043 C-58.40477954 126.28010508 -61.66925365 129.54129475 -64.93509769 132.80115414 C-67.46696285 135.32938627 -69.99641744 137.86001939 -72.52517509 140.39135933 C-73.72718599 141.59403192 -74.92992519 142.79597709 -76.13344002 143.9971447 C-82.30208724 150.15639607 -88.36326883 156.342257 -94 163 C-95.45445517 164.60768373 -96.91220895 166.21239715 -98.375 167.8125 C-103.1021291 173.06398292 -107.60346283 178.47010495 -112 184 C-112.51723633 184.65000977 -113.03447266 185.30001953 -113.56738281 185.96972656 C-122.09388843 196.72267964 -130.2357049 207.68489284 -138 219 C-138.42732422 219.61907227 -138.85464844 220.23814453 -139.29492188 220.87597656 C-153.18690974 241.06378732 -165.07060378 262.50346173 -176.4375 284.1875 C-176.94603516 285.15598877 -177.45457031 286.12447754 -177.97851562 287.12231445 C-180.52604056 292.01689633 -182.8902187 296.90241464 -185 302 C-185.80773571 303.75220412 -186.61996311 305.50234738 -187.4375 307.25 C-187.86289062 308.20519531 -188.28828125 309.16039062 -188.7265625 310.14453125 C-189.52182823 311.92778048 -190.34555865 313.69892025 -191.2109375 315.44921875 C-196.13910838 326.58129268 -195.82409034 340.49011802 -191.5 351.75 C-190.70127707 353.51606515 -189.88191245 355.27397136 -189 357 C-188.97421875 356.39414062 -188.9484375 355.78828125 -188.921875 355.1640625 C-188.46968294 348.48395253 -186.77755061 343.07185483 -184 337 C-183.34 337.33 -182.68 337.66 -182 338 C-181.5078125 339.75 -181.5078125 339.75 -181.125 342 C-179.48392637 349.95289529 -176.36954209 357.64958465 -170 363 C-166.92426278 364.13078574 -164.00386125 364.10531396 -160.75 364.0625 C-159.41195312 364.04896484 -159.41195312 364.04896484 -158.046875 364.03515625 C-157.37140625 364.02355469 -156.6959375 364.01195312 -156 364 C-156.721875 363.505 -157.44375 363.01 -158.1875 362.5 C-162.83132666 358.37215408 -166.61559155 352.90080055 -167.23828125 346.58203125 C-167.46191705 338.23688465 -165.86347156 333.27253892 -160.375 327 C-158 325 -158 325 -156 325 C-156 324.34 -156 323.68 -156 323 C-156.56203125 322.86722656 -157.1240625 322.73445313 -157.703125 322.59765625 C-160.09366153 321.97562889 -162.41035775 321.22884959 -164.75 320.4375 C-165.54921875 320.16808594 -166.3484375 319.89867187 -167.171875 319.62109375 C-167.77515625 319.41613281 -168.3784375 319.21117187 -169 319 C-169 318.01 -169 317.02 -169 316 C-162.12397485 312.11053123 -155.85875927 310.71312817 -148 312 C-137.16792607 315.75671191 -130.29123284 321.92064871 -124.9453125 331.88671875 C-121.6427665 339.26968314 -121.87646083 348.65195379 -123.87109375 356.37109375 C-128.03955633 367.09975975 -133.63529668 372.94154576 -144.04296875 377.74609375 C-147.6651247 379.28204099 -151.2819151 380.71297061 -155 382 C-155.33 386.62 -155.66 391.24 -156 396 C-154.02 395.67 -152.04 395.34 -150 395 C-144.90629232 394.2095011 -140.14321558 393.79830527 -135 394 C-134.76925781 394.52207031 -134.53851563 395.04414062 -134.30078125 395.58203125 C-132.39598168 399.88100576 -130.46543263 404.16587861 -128.5 408.4375 C-126.16726668 413.56665982 -124.03104793 418.74506646 -122 424 C-121.61328125 424.94359375 -121.2265625 425.8871875 -120.828125 426.859375 C-120.45171875 427.81328125 -120.0753125 428.7671875 -119.6875 429.75 C-119.34074219 430.61109375 -118.99398437 431.4721875 -118.63671875 432.359375 C-117.83215493 435.69609365 -118.04767541 437.69860809 -119 441 C-120.8984375 443.9375 -120.8984375 443.9375 -123.375 447 C-123.81835693 447.5554248 -124.26171387 448.11084961 -124.71850586 448.68310547 C-125.65906623 449.86090503 -126.60408219 451.03515845 -127.55322266 452.20605469 C-129.4561914 454.56565886 -131.31603168 456.95760011 -133.17797852 459.34960938 C-138.35061606 465.98255246 -143.61236021 472.540149 -149 479 C-149.46019531 479.55187988 -149.92039062 480.10375977 -150.39453125 480.67236328 C-156.25721614 487.67780766 -162.23317216 494.39894628 -168.78125 500.78125 C-170.74304335 502.74304335 -172.53451723 504.74839316 -174.3125 506.875 C-178.88366822 512.20982221 -184.16090032 516.81434256 -189.36425781 521.51708984 C-190.88366363 522.89453326 -192.39155112 524.28465299 -193.8984375 525.67578125 C-210.83590577 541.27863526 -210.83590577 541.27863526 -216 543 C-214.05768965 535.11575339 -212.06910593 527.24479927 -210.0234375 519.38671875 C-209.84810486 518.71203049 -209.67277222 518.03734222 -209.49212646 517.34220886 C-208.04389702 511.76938938 -208.04389702 511.76938938 -207.3425293 509.09347534 C-202.04302445 488.87322324 -199.64593698 469.56213042 -199.73925781 448.66723633 C-199.75002959 445.80463693 -199.73926229 442.94265934 -199.7265625 440.08007812 C-199.70582666 413.90396682 -206.20519434 390.83803777 -215.91015625 366.70703125 C-222.33537544 350.68708903 -227.77491401 335.03056308 -231 318 C-231.17354004 317.10700195 -231.34708008 316.21400391 -231.52587891 315.29394531 C-239.96527007 270.33394454 -228.54568646 224.15974522 -204 186 C-196.14898257 174.55683594 -187.03653438 163.59046618 -177 154 C-177 157.53336747 -177.83539634 158.75906728 -179.6328125 161.76171875 C-180.18936523 162.70845459 -180.74591797 163.65519043 -181.31933594 164.63061523 C-181.91520508 165.63938721 -182.51107422 166.64815918 -183.125 167.6875 C-189.85594106 179.33741571 -195.63143431 190.4482245 -197 204 C-196.41734375 203.15179688 -195.8346875 202.30359375 -195.234375 201.4296875 C-175.0345692 172.37310817 -149.26514462 148.6993058 -118 132 C-117.39784668 131.67435059 -116.79569336 131.34870117 -116.17529297 131.01318359 C-98.9845574 121.79053158 -80.93898241 115.52593118 -62 111 C-61.3387915 110.81751709 -60.67758301 110.63503418 -59.99633789 110.44702148 C-57.00049751 109.77619065 -54.05635183 109.941224 -51 110 C-51 109.34 -51 108.68 -51 108 C-73.63308287 108.40839278 -96.10304236 109.19894776 -118.23046875 114.4375 C-121.91837439 115.18652456 -125.25377195 115.22477368 -129 115 C-116.98239816 101.81940443 -98.20317114 95.41709748 -82 89 C-112.68361496 91.83374001 -141.86702041 106.42634468 -166 125 C-166.97710937 125.74636719 -167.95421875 126.49273437 -168.9609375 127.26171875 C-191.75035516 145.33954126 -219.33806413 171.74872552 -229 200 C-229.66 200 -230.32 200 -231 200 C-231.391875 201.19625 -231.78375 202.3925 -232.1875 203.625 C-233.50520908 207.58428476 -234.89603468 211.51252029 -236.3125 215.4375 C-236.97149234 217.28904948 -237.63038071 219.14063743 -238.28662109 220.99316406 C-238.77561369 222.36876952 -239.26831759 223.74305971 -239.76416016 225.11621094 C-243.67299809 235.99107848 -246.31025848 246.57297105 -248 258 C-248.32969576 260.00060286 -248.66163376 262.00084533 -249 264 C-249.66 264 -250.32 264 -251 264 C-251.56245826 227.04649208 -251.56245826 227.04649208 -246.65234375 209.43359375 C-245.89583961 206.81705256 -245.89583961 206.81705256 -245.5 203.3125 C-244.97832588 199.85640897 -244.03380283 196.86037374 -242.87890625 193.57421875 C-241.87523668 190.63458211 -241.00415742 187.66666909 -240.125 184.6875 C-233.72290268 164.03480826 -223.12095767 144.16711061 -210 127 C-209.59023926 126.4632666 -209.18047852 125.9265332 -208.75830078 125.37353516 C-196.95862667 110.20117974 -182.78404045 95.97762212 -167 85 C-165.95070313 84.23300781 -164.90140625 83.46601563 -163.8203125 82.67578125 C-134.37429291 61.64717641 -96.59526424 45.61199112 -60 45.9375 C-56.7 45.958125 -53.4 45.97875 -50 46 C-50 54.91 -50 63.82 -50 73 C-41.585 72.505 -41.585 72.505 -33 72 C-33.03480469 69.8034375 -33.06960938 67.606875 -33.10546875 65.34375 C-33.12903445 63.15577486 -33.14715331 60.96781521 -33.16479492 58.77978516 C-33.17964702 57.28850717 -33.19993422 55.79727089 -33.22631836 54.30615234 C-33.41229733 43.5047857 -32.37411552 33.54210785 -30 23 C-97.75195401 25.69825814 -154.72471268 41.21957656 -205 89 C-205.70253906 89.6496875 -206.40507812 90.299375 -207.12890625 90.96875 C-221.62993911 104.7959975 -233.11318852 122.6935695 -243 140 C-243.52207031 140.898396 -243.52207031 140.898396 -244.0546875 141.81494141 C-254.10431133 159.20815783 -261.2682058 178.9111873 -263 199 C-263.33 199.66 -263.66 200.32 -264 201 C-265.32793898 209.59864035 -265.19977789 218.25896253 -265.1875 226.9375 C-265.18689575 227.72200531 -265.1862915 228.50651062 -265.18566895 229.31478882 C-265.16188119 240.66981419 -264.87725845 251.77980986 -263 263 C-262.87109375 263.82612793 -262.7421875 264.65225586 -262.609375 265.50341797 C-260.38663591 279.6245 -257.03016208 293.29360806 -253 307 C-252.80325684 307.68126953 -252.60651367 308.36253906 -252.40380859 309.06445312 C-246.32461072 330.00331098 -238.37933691 350.37649673 -230.1875 370.5625 C-229.70727386 371.74723404 -229.70727386 371.74723404 -229.21734619 372.9559021 C-225.92651857 381.05712365 -222.59437069 389.11021581 -218.84106445 397.01147461 C-218 399 -218 399 -218 401 C-221.90470439 399.69843187 -223.15468221 397.32392586 -225.375 394.0625 C-226.26736365 392.78064704 -227.1606383 391.49942792 -228.0546875 390.21875 C-228.5300293 389.53425781 -229.00537109 388.84976562 -229.49511719 388.14453125 C-231.57284127 385.18367332 -233.70570744 382.26442891 -235.83837891 379.34301758 C-238.58152139 375.57814924 -241.29435388 371.7918733 -244 368 C-244.4434375 367.3807666 -244.886875 366.7615332 -245.34375 366.12353516 C-257.58348459 348.88750265 -267.67444898 329.82494653 -275 310 C-275.60521484 308.36466309 -275.60521484 308.36466309 -276.22265625 306.69628906 C-282.6509217 289.03774793 -287.26496679 271.64795372 -290 253 C-290.30164063 251.06447266 -290.30164063 251.06447266 -290.609375 249.08984375 C-295.29164694 209.29309644 -287.42335651 165.28477781 -268.56640625 129.984375 C-266.9326987 127.06624858 -266.9326987 127.06624858 -266 124 C-265.34 124 -264.68 124 -264 124 C-263.92652344 123.3296875 -263.85304688 122.659375 -263.77734375 121.96875 C-262.73316518 117.98093234 -260.77412709 114.94983989 -258.5625 111.5 C-257.89142212 110.44268677 -257.89142212 110.44268677 -257.20678711 109.36401367 C-252.84764795 102.59593682 -248.07271997 96.24409979 -243 90 C-242.18273437 88.97777344 -241.36546875 87.95554687 -240.5234375 86.90234375 C-229.78008693 73.6916208 -217.57161301 61.29380146 -204 51 C-202.6965146 49.99101457 -201.39313738 48.98188938 -200.08984375 47.97265625 C-187.82814257 38.5531281 -187.82814257 38.5531281 -181.35546875 35.25 C-178.8661683 33.9289782 -176.49407186 32.45691935 -174.10546875 30.96337891 C-151.01006996 16.63815392 -125.88326218 7.67230097 -99.50610352 1.59228516 C-97.35456228 1.08379621 -95.22984119 0.519937 -93.09765625 -0.0625 C-66.17002789 -6.79099853 -26.55866871 -8.85288957 0 0 Z " fill="#B2A45D" transform="translate(547,254)"/>
<path d="M0 0 C5.55161353 1.05807548 11.02632489 2.15888992 16.4375 3.8125 C17.42621094 4.10769531 18.41492188 4.40289062 19.43359375 4.70703125 C24.42624822 6.51707356 29.18984997 8.75569365 34 11 C34.91225342 11.42047607 35.82450684 11.84095215 36.7644043 12.27416992 C56.49558011 21.39964119 74.02319174 31.40427967 91 45 C92.00804687 45.7940625 93.01609375 46.588125 94.0546875 47.40625 C99.22811536 51.54499229 104.17863262 55.9017054 109.0625 60.375 C109.90409668 61.14372437 109.90409668 61.14372437 110.76269531 61.92797852 C113.19079328 64.18066399 115.15348113 66.23022169 117 69 C116.41734375 69.71800781 115.8346875 70.43601562 115.234375 71.17578125 C100.23873934 89.97618705 87.48146105 111.0912503 80 134 C79.35441936 135.72454116 78.70711486 137.44843746 78.05859375 139.171875 C55.88935981 199.91063119 66.88102405 267.84161002 93.2578125 325.203125 C100.04543488 339.65235332 107.68437865 353.00978358 116.703125 366.1953125 C117.24775391 366.99614258 117.79238281 367.79697266 118.35351562 368.62207031 C119.46191242 370.22286876 120.59681449 371.80559998 121.75585938 373.37011719 C125.17071919 378.1040817 126.85311644 380.97527845 126 387 C125.42806856 390.34399555 124.71582193 393.6357078 123.9375 396.9375 C123.71562012 397.89043945 123.49374023 398.84337891 123.26513672 399.82519531 C119.09582753 417.32888433 113.96241519 434.40105457 107 451 C106.55011719 452.09054687 106.10023438 453.18109375 105.63671875 454.3046875 C103.47459165 459.31676216 101.00154214 464.1811506 98.5625 469.0625 C98.08490234 470.02994141 97.60730469 470.99738281 97.11523438 471.99414062 C94.6768324 476.88097916 92.25451467 481.60381047 89 486 C88.67 486 88.34 486 88 486 C88 474.45 88 462.9 88 451 C87.67 451 87.34 451 87 451 C86.8453125 452.8871875 86.8453125 452.8871875 86.6875 454.8125 C86.18357368 459.32683991 85.12732329 463.4946893 83.85546875 467.84765625 C83.08452704 470.68852365 82.49326084 473.52653033 81.92041016 476.41210938 C77.30712444 498.63732324 67.30933624 524.06222493 53 542 C52.67 542 52.34 542 52 542 C52.01047363 540.68507568 52.02094727 539.37015137 52.03173828 538.01538086 C52.06834708 533.06716713 52.09104698 528.11896499 52.10986328 523.1706543 C52.11982879 521.04205299 52.13340608 518.91346503 52.15087891 516.78491211 C52.28093023 500.51702119 51.72749478 485.26751374 47 469.5625 C46.69876221 468.55098877 46.39752441 467.53947754 46.0871582 466.49731445 C40.6250193 448.76624486 32.96637859 432.02343649 23.98632812 415.81738281 C23.66083984 415.21764648 23.33535156 414.61791016 23 414 C22.63326172 413.3409668 22.26652344 412.68193359 21.88867188 412.00292969 C19.6458238 406.94789519 21.01039945 401.3421478 22.4375 396.23828125 C23.08750042 393.65182126 23.47957891 391.07481743 23.875 388.4375 C27.09070136 368.59487763 34.37242399 349.54140155 42.984375 331.47265625 C44.00737939 328.98203403 44.5636971 326.65101439 45 324 C32.36006107 339.77542765 22.5670944 357.29340401 13.4934082 375.28930664 C12.93484131 376.39395264 12.37627441 377.49859863 11.80078125 378.63671875 C11.30747314 379.62373779 10.81416504 380.61075684 10.3059082 381.62768555 C9 384 9 384 7 386 C1.21810443 377.52803821 -3.31029725 368.54650636 -7.75 359.3125 C-8.30453857 358.16096436 -8.85907715 357.00942871 -9.43041992 355.82299805 C-10.98244883 352.56118226 -12.49707755 349.28467928 -14 346 C-14.43376953 345.09556152 -14.86753906 344.19112305 -15.31445312 343.25927734 C-17.88328386 337.55431405 -18.93973733 333.07011694 -17 327 C-15.22685022 323.17899739 -13.07783425 319.67201271 -10.8125 316.125 C-10.18682129 315.12412354 -9.56114258 314.12324707 -8.91650391 313.09204102 C0.15490643 298.77455488 10.28201194 285.40385956 21.49707031 272.70898438 C24.19328667 269.64311133 26.84407256 266.53825656 29.5 263.4375 C29.99258301 262.86539795 30.48516602 262.2932959 30.99267578 261.70385742 C31.45915527 261.16092041 31.92563477 260.6179834 32.40625 260.05859375 C32.81166016 259.58736084 33.21707031 259.11612793 33.63476562 258.63061523 C35.46051612 256.44996653 37.2288049 254.22505209 39 252 C20.33330943 264.63791792 20.33330943 264.63791792 3 279 C2.13616699 279.78358887 2.13616699 279.78358887 1.25488281 280.58300781 C-6.82889973 287.93774896 -14.64769708 295.52920841 -22.25341797 303.37792969 C-22.84654785 303.98282227 -23.43967773 304.58771484 -24.05078125 305.2109375 C-24.57325439 305.75024902 -25.09572754 306.28956055 -25.6340332 306.84521484 C-27 308 -27 308 -29 308 C-31.73667453 299.45001686 -34.20357978 290.83110651 -36.625 282.1875 C-37.07661499 280.57790405 -37.07661499 280.57790405 -37.53735352 278.93579102 C-38.36756274 275.95966088 -39.18698807 272.98086891 -40 270 C-40.21624023 269.21963379 -40.43248047 268.43926758 -40.65527344 267.63525391 C-42.50661202 260.69029396 -42.50661202 260.69029396 -42 257 C-40.39888655 254.94890287 -38.89476771 253.28681941 -37.03125 251.5078125 C-36.51751831 250.99878387 -36.00378662 250.48975525 -35.4744873 249.96530151 C-33.82768793 248.33981681 -32.16412505 246.7327222 -30.5 245.125 C-29.41036793 244.05188732 -28.32181422 242.9776785 -27.234375 241.90234375 C-21.65402335 236.40825565 -15.96640574 231.07508293 -10 226 C-8.85842145 225.0036957 -7.717775 224.00632225 -6.578125 223.0078125 C0.72261164 216.66741515 8.17076224 210.67834827 16 205 C8.42294783 207.01853668 1.44458547 209.81027729 -5.625 213.1875 C-7.22807007 213.95078613 -7.22807007 213.95078613 -8.86352539 214.72949219 C-20.28347306 220.34961428 -30.60238918 227.35737957 -40.96655273 234.72167969 C-43 236 -43 236 -45 236 C-45.74402797 233.29207105 -46.16686732 230.76730184 -46.31640625 227.96484375 C-46.35958984 227.16860596 -46.40277344 226.37236816 -46.44726562 225.55200195 C-46.61353915 221.77949521 -46.73090534 218.00563814 -46.85205078 214.23144531 C-47.00929335 210.79701844 -47.29729545 207.38632703 -47.58984375 203.9609375 C-48.75226467 186.87055458 -48.75226467 186.87055458 -45.76513672 181.97705078 C-42.42107689 178.59788813 -38.39937318 176.73193339 -34.05957031 174.91113281 C-30.92941802 173.5263855 -28.17332065 171.61924815 -25.3125 169.75 C-17.90905218 165.24629624 -10.12165418 161.43168701 -2.375 157.5625 C-1.7518692 157.25123169 -1.1287384 156.93996338 -0.48672485 156.6192627 C10.74861105 151.02204484 10.74861105 151.02204484 16 149 C14.87572365 147.64894855 14.87572365 147.64894855 11.94897461 147.88647461 C10.60008729 147.88663366 9.25119386 147.89232388 7.90234375 147.90234375 C7.19348526 147.9037587 6.48462677 147.90517365 5.75428772 147.90663147 C3.48198288 147.91224557 1.20977525 147.92480037 -1.0625 147.9375 C-2.59960796 147.94251319 -4.13671745 147.94707641 -5.67382812 147.95117188 C-9.44925642 147.96221958 -13.22461171 147.97949359 -17 148 C-14.19285135 145.05657018 -11.73705503 142.54779923 -8.046875 140.796875 C-7.345625 140.4565625 -6.644375 140.11625 -5.921875 139.765625 C-5.20515625 139.43046875 -4.4884375 139.0953125 -3.75 138.75 C0.93821174 136.81601481 0.93821174 136.81601481 5 134 C-10.50396187 136.28944515 -25.8516798 139.9430619 -40.22265625 146.3359375 C-42 147 -42 147 -45 147 C-46.20597109 124.62253639 -39.34942157 101.47303211 -33.375 80.125 C-33.19340332 79.44808105 -33.01180664 78.77116211 -32.82470703 78.07373047 C-31.623519 73.98075405 -30.46410138 71.51556146 -27 69 C-23.80886311 68.41778094 -20.66130319 68.48804769 -17.42578125 68.5390625 C-16.47669388 68.53925385 -15.52760651 68.53944519 -14.54975891 68.53964233 C-11.47015582 68.54708034 -8.39183692 68.58487912 -5.3125 68.625 C-3.21338306 68.63867476 -1.11426177 68.65169532 0.98486328 68.6640625 C15.39087979 68.78597638 29.67689318 69.37303452 44 71 C24.27065082 61.05640801 4.68475946 54.68608723 -16.99487305 50.46142578 C-19 50 -19 50 -21 49 C-19.76507552 41.1788116 -16.67195723 34.56583631 -13.22314453 27.51123047 C-11.75881841 24.50483157 -10.31460763 21.48910249 -8.87109375 18.47265625 C-5.92208707 12.31122969 -2.96361418 6.15441201 0 0 Z " fill="#BAAC65" transform="translate(173,267)"/>
<path d="M0 0 C4.99274499 1.68406081 9.1157485 4.52591241 13.5 7.375 C38.49285142 23.34145187 65.5356729 38.72000851 93 50 C100.23986464 52.99223303 107.45133259 56.04450515 114.64355469 59.14941406 C129.68121981 65.6395346 144.8074527 71.88067826 160 78 C160 78.33 160 78.66 160 79 C154.82660126 79.11307975 150.27501668 78.82346031 145.1875 77.75 C129.75400345 74.6636773 114.09460761 72.40311836 98.4375 70.8125 C97.38997559 70.7050647 97.38997559 70.7050647 96.32128906 70.59545898 C93.88243239 70.36622428 91.44316159 70.17810519 89 70 C87.82719482 69.91242432 86.65438965 69.82484863 85.44604492 69.73461914 C72.10159747 68.82585171 58.75096782 68.81386665 45.38061523 68.81469727 C41.46912634 68.81251762 37.55792345 68.79431496 33.64648438 68.77539062 C13.49994598 68.72938961 -6.93357721 69.02540218 -26.75 73.0625 C-27.79019287 73.2680249 -28.83038574 73.4735498 -29.90209961 73.68530273 C-45.51764036 76.95178941 -61.90288391 81.37478201 -76.30834961 88.28100586 C-78 89 -78 89 -80 89 C-78.59056672 85.7981169 -76.91496065 83.67916065 -74.42749023 81.23217773 C-73.69590195 80.50719589 -72.96431366 79.78221405 -72.21055603 79.03526306 C-71.41790848 78.25921219 -70.62526093 77.48316132 -69.80859375 76.68359375 C-68.57968163 75.46604149 -68.57968163 75.46604149 -67.32594299 74.22389221 C-63.82626768 70.75679656 -60.31510006 67.30142952 -56.80444336 63.84545898 C-47.71955044 54.89007031 -38.81813473 46.09964153 -31 36 C-29.37437108 34.12197295 -27.69717907 32.31503873 -26 30.5 C-21.97625547 26.12340403 -18.18269795 21.61714379 -14.44921875 16.9921875 C-9.73949948 11.23836778 -4.85700947 5.62952875 0 0 Z " fill="#C4B870" transform="translate(432,725)"/>
<path d="M0 0 C2.73147985 1.36573992 2.83305204 2.67960808 3.89746094 5.51733398 C4.45274223 6.98175179 4.45274223 6.98175179 5.01924133 8.47575378 C5.42023544 9.55496597 5.82122955 10.63417816 6.234375 11.74609375 C6.87230232 13.43687798 6.87230232 13.43687798 7.52311707 15.16181946 C8.69295445 18.26600956 9.85651789 21.37242191 11.01755905 24.47990417 C12.25079315 27.77597046 13.49195626 31.06904673 14.73266602 34.36230469 C16.27885845 38.46771626 17.82435308 42.57338402 19.36647034 46.68032837 C22.73700452 55.65588638 26.12961557 64.62264801 29.54296875 73.58203125 C47.7640677 121.42138783 65.50710486 169.43528058 83.17602539 217.48071289 C83.79349892 219.15904961 83.79349892 219.15904961 84.42344666 220.87129211 C85.21295639 223.01764211 86.00192743 225.16419035 86.79029846 227.31095886 C88.47620834 231.89513046 90.17288293 236.47393659 91.91748047 241.03613281 C92.34648903 242.16119736 92.34648903 242.16119736 92.78416443 243.30899048 C93.52464616 245.24371481 94.27165356 247.17593824 95.01928711 249.10791016 C96 252 96 252 96 255 C92.75365823 253.629515 91.19155954 252.28050453 89.2578125 249.3515625 C88.75636719 248.60390625 88.25492188 247.85625 87.73828125 247.0859375 C86.93970703 245.86777344 86.93970703 245.86777344 86.125 244.625 C84.96208608 242.88725164 83.79798486 241.15029736 82.6328125 239.4140625 C82.0337207 238.51719727 81.43462891 237.62033203 80.81738281 236.69628906 C77.9369523 232.42285078 74.96855695 228.21247232 72 224 C66.87814459 216.71363106 61.83642535 209.37706535 56.83081055 202.01049805 C53.09277312 196.53399732 49.22846037 191.16270099 45.3125 185.8125 C41.27530743 180.26587408 37.35827974 174.67184222 33.6875 168.875 C33.32760986 168.31530518 32.96771973 167.75561035 32.59692383 167.17895508 C24.50075139 154.12854439 18.45229159 139.68318041 12.0625 125.75 C11.2691395 124.02245398 10.47576374 122.29491497 9.68237305 120.56738281 C8.51410003 118.0225439 7.3464184 115.47744055 6.18037415 112.93157959 C4.06875583 108.32164128 1.94190611 103.71948189 -0.203125 99.125 C-1.0315585 97.33347596 -1.85972042 95.54182628 -2.6875 93.75 C-3.05544678 92.97237305 -3.42339355 92.19474609 -3.80249023 91.39355469 C-6.11381902 86.34145706 -6.11381902 86.34145706 -5 83 C-0.05 85.97 4.9 88.94 10 92 C9.76603516 89.23302734 9.76603516 89.23302734 9.52734375 86.41015625 C8.86818296 77.85728438 8.66754265 69.30276795 8.48242188 60.72851562 C8.14245373 48.67568278 6.8624187 38.73508131 1.375 27.9375 C-2.40793455 20.01392586 -5.07387191 13.52117501 -2.296875 4.7890625 C-1.5 2.8125 -1.5 2.8125 0 0 Z " fill="#E2DB90" transform="translate(693,534)"/>
<path d="M0 0 C5.58507504 2.69319824 10.9400039 5.40473961 16 9 C16 6.36 16 3.72 16 1 C18.31887462 3.85247929 19.72744634 6.49630281 21 9.9375 C22.38174632 13.54598365 23.94788887 16.7166222 26 20 C26 20.66 26 21.32 26 22 C26.99 22.33 27.98 22.66 29 23 C30.2109375 25.40625 30.2109375 25.40625 31.375 28.5 C32.91419478 32.44593571 34.51916928 36.0273019 36.75 39.625 C39.46201088 44.25837283 39.87830298 48.70064777 40 54 C40.66 54 41.32 54 42 54 C42.30292969 54.76183594 42.60585938 55.52367187 42.91796875 56.30859375 C44.9074772 61.21196689 46.88582726 65.99054346 49.5625 70.5625 C53.23147229 76.91665074 55.7018157 83.78209528 57 91 C57.66 91 58.32 91 59 91 C59.1546875 91.9590625 59.1546875 91.9590625 59.3125 92.9375 C59.539375 93.618125 59.76625 94.29875 60 95 C60.99 95.33 61.98 95.66 63 96 C65.82425588 101.01077656 67.91207033 106.21218022 70 111.5625 C70.9074621 113.77443887 71.90411714 115.87672696 73 118 C75.68324228 123.22861045 78.47575929 128.78241254 79.42578125 134.61328125 C80.08930215 137.37118104 80.96834383 138.10616975 83 140 C83.9921875 141.98046875 83.9921875 141.98046875 84.875 144.1875 C86.56643607 148.22193701 88.63529902 151.69722968 91.14453125 155.2734375 C92 157 92 157 91 160 C90.66379639 159.50822266 90.32759277 159.01644531 89.98120117 158.50976562 C85.98957533 152.67173334 81.99527767 146.8355336 78 141 C77.51499023 140.29117676 77.02998047 139.58235352 76.53027344 138.85205078 C71.08247172 130.89306063 65.59203111 122.96494902 60.0625 115.0625 C59.47267334 114.21872803 58.88284668 113.37495605 58.27514648 112.50561523 C55.4474223 108.46717341 52.60548526 104.44073182 49.72265625 100.44140625 C36.55866426 82.13999695 26.84874207 62.38074707 17.625 41.875 C16.64966244 39.71399358 15.67356813 37.55332993 14.69746399 35.39266968 C14.05161013 33.96270262 13.40616824 32.53254942 12.76115417 31.10220337 C10.79763862 26.75113945 8.8123805 22.41084366 6.80859375 18.078125 C6.33921387 17.05992676 5.86983398 16.04172852 5.38623047 14.99267578 C4.5262666 13.12968507 3.66223476 11.26856483 2.79345703 9.40966797 C2.41946777 8.59643066 2.04547852 7.78319336 1.66015625 6.9453125 C1.33668213 6.24937988 1.01320801 5.55344727 0.67993164 4.83642578 C0 3 0 3 0 0 Z " fill="#9B8A48" transform="translate(687,617)"/>
<path d="M0 0 C0.99 1.485 0.99 1.485 2 3 C2.47695313 3.70511719 2.95390625 4.41023437 3.4453125 5.13671875 C11.28419173 17.04087721 17.11943874 29.63150612 22 43 C24.42282801 49.29935283 27.07389385 55.44796032 29.94921875 61.5546875 C30.8750978 63.70933541 31.51578298 65.71194156 32 68 C32.66 68 33.32 68 34 68 C34.21914063 68.57105469 34.43828125 69.14210938 34.6640625 69.73046875 C37.09277338 75.94046526 39.79590717 81.98559529 42.6328125 88.01953125 C43.49921598 89.90829084 44.32059412 91.8189089 45.078125 93.75390625 C45.92348263 96.09102377 45.92348263 96.09102377 47.625 98.125 C49 100 49 100 49 103 C49.99 103.33 50.98 103.66 52 104 C53.09765625 106.3984375 53.09765625 106.3984375 54.0625 109.375 C55.15055885 112.68724342 56.05140257 115.07710386 58 118 C58.28875 118.969375 58.5775 119.93875 58.875 120.9375 C59.75942231 124.04032186 59.75942231 124.04032186 61.92243958 125.83522034 C64.33916282 128.3534014 65.1904817 130.4234315 66.3659668 133.69897461 C66.78287277 134.84373764 67.19977875 135.98850067 67.62931824 137.16795349 C68.06488541 138.40030228 68.50045258 139.63265106 68.94921875 140.90234375 C69.41104658 142.18534182 69.87377351 143.46801657 70.33735657 144.75038147 C71.30479171 147.43363455 72.2648193 150.11937651 73.21899414 152.80737305 C74.43945425 156.24523296 75.67274665 159.67830009 76.91093731 163.10980892 C78.094971 166.39317152 79.27222843 169.67895129 80.44921875 172.96484375 C80.89085861 174.1951683 81.33249847 175.42549286 81.78752136 176.69309998 C82.19497086 177.84101517 82.60242035 178.98893036 83.0222168 180.17163086 C83.38099411 181.17882675 83.73977142 182.18602264 84.10942078 183.22373962 C84.93855599 185.80845659 85.5293255 188.32926995 86 191 C80.81166903 188.8708793 78.67128802 184.73546512 76 180 C75.17066179 177.98589292 74.46734594 175.96489314 73.78125 173.8984375 C72.91981296 171.8051455 71.82516347 170.2829862 70.4375 168.5 C68.43608868 165.90712683 67.55358496 163.82974576 66.875 160.625 C66.58625 159.42875 66.2975 158.2325 66 157 C65.01 156.67 64.02 156.34 63 156 C59.51166399 147.50666015 56 136.22087317 56 127 C55.34 127 54.68 127 54 127 C53.74605469 126.34773437 53.49210938 125.69546875 53.23046875 125.0234375 C51.68671587 121.10334593 50.13555332 117.27110664 48.25 113.5 C47 111 47 111 47 109 C46.34 109 45.68 109 45 109 C44.46890625 107.92621094 43.9378125 106.85242188 43.390625 105.74609375 C42.67719255 104.30984158 41.96364471 102.87364672 41.25 101.4375 C40.90195312 100.73302734 40.55390625 100.02855469 40.1953125 99.30273438 C37.9409459 94.77312742 35.52650007 90.38313478 33 86 C32.25575129 84.54930569 31.52304639 83.09249581 30.8125 81.625 C29.6678414 79.12588093 29.6678414 79.12588093 28 77 C27.731875 75.72125 27.46375 74.4425 27.1875 73.125 C26.00581818 67.53886778 24.01771591 62.32816757 22 57 C21.67 56.01 21.34 55.02 21 54 C20.34 54 19.68 54 19 54 C18.54625 52.9275 18.0925 51.855 17.625 50.75 C16.78733644 48.78365362 15.94073623 46.88844466 14.9375 45 C13.89065084 42.76672179 13.28026324 40.49596624 12.62109375 38.125 C10.44256858 30.6714296 8.31419719 24.72298159 3 19 C-0.09777888 14.83274984 -0.33157135 11.82604473 -0.1875 6.6875 C-0.14689453 4.80611328 -0.14689453 4.80611328 -0.10546875 2.88671875 C-0.07066406 1.93410156 -0.03585937 0.98148438 0 0 Z " fill="#DFDA95" transform="translate(703,598)"/>
<path d="M0 0 C1.56627668 0.7420806 3.12785359 1.49408378 4.6875 2.25 C5.55761719 2.66765625 6.42773438 3.0853125 7.32421875 3.515625 C10.27526403 5.15270121 12.62192443 6.5884304 15 9 C15.95479694 13.36780037 15.86509302 17.50310051 16 22 C16.33 17.71 16.66 13.42 17 9 C32.73773937 29.98365249 40.21155336 53.01693481 37 79 C33.71439698 76.26810769 32.13190513 72.64907444 30.3046875 68.8828125 C29.95687225 68.17601349 29.60905701 67.46921448 29.2507019 66.74099731 C25.39455606 58.85376685 21.74809475 50.87122129 18.125 42.875 C17.42858277 41.34235823 16.7319659 39.80980715 16.03515625 38.27734375 C14.99585966 35.99132678 13.95687609 33.70517197 12.91925049 31.418396 C10.87709668 26.91940195 8.81770877 22.42901244 6.7421875 17.9453125 C6.03618408 16.41414795 6.03618408 16.41414795 5.31591797 14.85205078 C4.46237358 13.00212397 3.60486177 11.15402056 2.74267578 9.30810547 C2.37384277 8.50518066 2.00500977 7.70225586 1.625 6.875 C1.14933594 5.85019531 1.14933594 5.85019531 0.6640625 4.8046875 C0 3 0 3 0 0 Z " fill="#A4934E" transform="translate(687,617)"/>
<path d="M0 0 C2.73147985 1.36573992 2.83305204 2.67960808 3.89746094 5.51733398 C4.26756287 6.49338089 4.63766479 7.4694278 5.01898193 8.47505188 C5.42006165 9.5544957 5.82114136 10.63393951 6.234375 11.74609375 C6.6604303 12.87536789 7.0864856 14.00464203 7.52545166 15.1681366 C8.45277763 17.62888209 9.37747477 20.09043597 10.29785156 22.55377197 C11.75691018 26.45881341 13.22528367 30.36030773 14.6953125 34.26123047 C16.22834923 38.3308172 17.76060604 42.4006908 19.28942871 46.47186279 C22.88805795 56.05468213 26.50647935 65.62981376 30.140625 75.19921875 C30.38870659 75.85252859 30.63678818 76.50583843 30.89238739 77.17894554 C32.11878514 80.40839055 33.34549081 83.63771847 34.5723877 86.86697388 C38.02948068 95.9666376 41.48158086 105.06818501 44.92773438 114.17199707 C45.93277139 116.82269066 46.94232846 119.47161574 47.953125 122.12011719 C48.51052489 123.58784953 49.0678256 125.05561954 49.625 126.5234375 C50.09164062 127.74724121 50.55828125 128.97104492 51.0390625 130.23193359 C52 133 52 133 52 135 C49 134 49 134 47.9375 132.375 C47 130 47 130 46 126.4375 C45.16311503 122.91945123 45.16311503 122.91945123 43 120 C42.48320673 118.02972564 41.9698503 116.05804772 41.5078125 114.07421875 C40.83474344 111.3249905 39.93450728 108.6700208 39 106 C38.34 106 37.68 106 37 106 C35.16075122 102.418305 33.45400277 98.80174439 31.8125 95.125 C29.03063522 88.96274802 26.00729421 82.93081373 22.96484375 76.89453125 C22.64402832 76.25596191 22.32321289 75.61739258 21.99267578 74.95947266 C21.31217039 73.61620254 20.62255452 72.27752031 19.92529297 70.94287109 C17.89766044 67.01718807 16.32795649 63.31182597 15.25 59 C15.00765625 58.05125 14.7653125 57.1025 14.515625 56.125 C14.34546875 55.42375 14.1753125 54.7225 14 54 C13.34 54 12.68 54 12 54 C10.9739266 52.68662604 9.97272675 51.35335895 9 50 C8.67 50 8.34 50 8 50 C7.96003906 49.36578125 7.92007813 48.7315625 7.87890625 48.078125 C7.03586487 40.54279216 4.64529907 34.72664339 1.375 27.9375 C-2.39241174 20.0012612 -5.07750617 13.53260273 -2.296875 4.7890625 C-1.5 2.8125 -1.5 2.8125 0 0 Z " fill="#A18D49" transform="translate(693,534)"/>
<path d="M0 0 C0.99 1.485 0.99 1.485 2 3 C2.47695313 3.70511719 2.95390625 4.41023437 3.4453125 5.13671875 C11.28419173 17.04087721 17.11943874 29.63150612 22 43 C24.42282801 49.29935283 27.07389385 55.44796032 29.94921875 61.5546875 C30.8750978 63.70933541 31.51578298 65.71194156 32 68 C32.66 68 33.32 68 34 68 C34.21914063 68.57105469 34.43828125 69.14210938 34.6640625 69.73046875 C37.09277338 75.94046526 39.79590717 81.98559529 42.6328125 88.01953125 C43.49921598 89.90829084 44.32059412 91.8189089 45.078125 93.75390625 C45.92348263 96.09102377 45.92348263 96.09102377 47.625 98.125 C49 100 49 100 49 103 C49.99 103.33 50.98 103.66 52 104 C53.09765625 106.3984375 53.09765625 106.3984375 54.0625 109.375 C55.15055885 112.68724342 56.05140257 115.07710386 58 118 C58.309375 118.969375 58.61875 119.93875 58.9375 120.9375 C59.78746495 123.96927049 59.78746495 123.96927049 61.5625 125.875 C63.3445807 128.50938017 63.53024351 130.90291378 63.81640625 134.02734375 C64.03660971 136.39335964 64.49257101 138.68032461 65 141 C61.20803254 137.77682766 58.89399886 133.27563347 57.09765625 128.703125 C55.50912046 124.79114362 53.52819701 121.08244619 51.56640625 117.34765625 C49.48134129 113.27596288 48.12657018 109.40488942 47 105 C46.34 105 45.68 105 45 105 C44.16855469 103.31970703 44.16855469 103.31970703 43.3203125 101.60546875 C42.58864809 100.13275962 41.85687139 98.66010628 41.125 97.1875 C40.57779297 96.08051758 40.57779297 96.08051758 40.01953125 94.95117188 C39.48779297 93.88286133 39.48779297 93.88286133 38.9453125 92.79296875 C38.45828857 91.81106567 38.45828857 91.81106567 37.96142578 90.80932617 C36.90744328 88.75347202 36.90744328 88.75347202 35 86 C34.56057788 84.23947652 34.17113628 82.46623965 33.8125 80.6875 C32.3064578 74.32350628 29.75751769 69.06189196 26.71875 63.32421875 C25.48775737 60.94336709 24.39949393 58.6402583 23.375 56.17578125 C22.26736878 53.08339488 22.26736878 53.08339488 20.5 51.5 C18.12826538 49.12826538 17.28073578 46.06262903 16 43 C15.34 42.34 14.68 41.68 14 41 C12.74858959 37.72651589 11.5853674 34.44033206 10.47460938 31.1171875 C8.70581658 26.12185667 6.5186839 22.95506699 3 19 C-0.1155739 14.81661553 -0.33272388 11.8671518 -0.1875 6.6875 C-0.14689453 4.80611328 -0.14689453 4.80611328 -0.10546875 2.88671875 C-0.07066406 1.93410156 -0.03585937 0.98148438 0 0 Z " fill="#EEEDAD" transform="translate(703,598)"/>
<path d="M0 0 C2.90276614 1.45138307 3.07943498 3.2888821 4.23071289 6.29492188 C4.66779068 7.42700073 5.10486847 8.55907959 5.55519104 9.72546387 C6.02814407 10.97304987 6.50062037 12.22081669 6.97265625 13.46875 C7.46033343 14.74625441 7.94832935 16.02363718 8.43663025 17.30090332 C9.46105564 19.985897 10.47994802 22.672914 11.49536133 25.36132812 C12.79019676 28.78754373 14.100843 32.20745137 15.41616154 35.62584686 C16.42995002 38.26722938 17.43382205 40.91230033 18.43499565 43.55848694 C19.14506813 45.42900393 19.86431533 47.29602986 20.58375549 49.16296387 C22.97368104 55.53698613 24.63196071 61.19059072 25 68 C23.68 67.67 22.36 67.34 21 67 C20.87882813 66.14535156 20.75765625 65.29070312 20.6328125 64.41015625 C20.46523438 63.30542969 20.29765625 62.20070313 20.125 61.0625 C19.96257813 59.96035156 19.80015625 58.85820313 19.6328125 57.72265625 C19.42398438 56.82417969 19.21515625 55.92570313 19 55 C18.34 54.67 17.68 54.34 17 54 C17 53.34 17 52.68 17 52 C16.01 52 15.02 52 14 52 C13.97421875 51.41992188 13.9484375 50.83984375 13.921875 50.2421875 C13.517145 44.66795165 12.6364307 41.29759992 9 37 C8.34 37 7.68 37 7 37 C6.67 35.68 6.34 34.36 6 33 C5.34 33 4.68 33 4 33 C-4.76109462 16.43884921 -4.76109462 16.43884921 -3 7 C-2.2040865 4.44681682 -1.26603459 2.37381485 0 0 Z " fill="#B4A458" transform="translate(693,534)"/>
<path d="M0 0 C0.33 0 0.66 0 1 0 C1.103125 1.051875 1.20625 2.10375 1.3125 3.1875 C1.98249287 6.90291502 2.96256419 8.89955421 5 12 C5 12.66 5 13.32 5 14 C5.99 14.33 6.98 14.66 8 15 C9.31640625 17.109375 9.31640625 17.109375 10.5625 19.75 C10.97628906 20.61109375 11.39007812 21.4721875 11.81640625 22.359375 C13.62374297 26.39158497 15.13272087 30.14652814 15.9375 34.5 C16.70463468 38.19452061 17.93893943 40.81472458 20 44 C20 44.99 20 45.98 20 47 C20.66 47 21.32 47 22 47 C28.60059691 59.7477177 28.60059691 59.7477177 29.4375 66.5625 C30.04034772 70.24656943 30.9824048 71.90155024 33 75 C33.82684815 76.61774639 34.63782007 78.24365293 35.4375 79.875 C36.90394452 82.84301346 38.39605078 85.76448086 40.0625 88.625 C46 98.96774194 46 98.96774194 46 102 C46.66 102 47.32 102 48 102 C49.17374173 104.43431639 50.33915763 106.87204182 51.5 109.3125 C51.83386719 110.00279297 52.16773438 110.69308594 52.51171875 111.40429688 C55 116.66015625 55 116.66015625 55 120 C55.66 120 56.32 120 57 120 C57.53341184 121.57914015 58.05125763 123.16354387 58.5625 124.75 C58.85253906 125.63171875 59.14257812 126.5134375 59.44140625 127.421875 C60.01697435 130.07834316 59.89248371 131.47031106 59 134 C55.16314504 126.46839582 51.54084956 118.84003583 48.375 111 C47.13152843 108.28697112 46.15802804 106.95250156 44 105 C44 104.34 44 103.68 44 103 C43.34 103 42.68 103 42 103 C37.11549465 91.41619284 37.11549465 91.41619284 35.5 86.8125 C34.42277962 83.83937176 33.03253902 81.22970234 31.4375 78.5 C29.06250468 74.38667979 27.92934334 70.64671672 27 66 C26.34 66 25.68 66 25 66 C24.92265625 65.17822266 24.92265625 65.17822266 24.84375 64.33984375 C23.86898359 57.52755575 21.28344839 52.25584154 17.91992188 46.35522461 C16.30286929 43.50838086 14.95286664 40.85513423 13.9375 37.734375 C12.969233 34.91026292 12.15913984 33.94930016 10 32 C3.492289 22.02422985 -0.20136832 11.88073072 0 0 Z " fill="#D3C66F" transform="translate(702,605)"/>
<path d="M0 0 C3 3.75 3 3.75 3 6 C3.66 6 4.32 6 5 6 C7.73427471 12.28883184 7.73427471 12.28883184 8.80859375 15.1640625 C11.05669633 21.13901957 13.92442627 26.65375939 16.99560547 32.2355957 C19.81469302 37.44569692 21.94325995 42.69274968 23.89453125 48.29296875 C24.87859077 51.03064394 24.87859077 51.03064394 26.63671875 53.17578125 C28 55 28 55 28 58 C28.66 58 29.32 58 30 58 C32.19990215 62.10648402 34.09106058 65.82233128 35.125 70.375 C35.67113096 74.0187643 35.67113096 74.0187643 38 76 C38.7166207 78.31847874 39.38242027 80.65319703 40 83 C40.75150023 86.27773504 40.75150023 86.27773504 44 88 C45.18261719 90.38256836 45.18261719 90.38256836 46.296875 93.33984375 C46.69777344 94.40267578 47.09867188 95.46550781 47.51171875 96.56054688 C47.92035156 97.67494141 48.32898438 98.78933594 48.75 99.9375 C49.17410156 101.04802734 49.59820313 102.15855469 50.03515625 103.30273438 C53.12744462 111.61766614 53.12744462 111.61766614 52 115 C51.731875 114.4225 51.46375 113.845 51.1875 113.25 C50.08665626 111.00237633 50.08665626 111.00237633 48.61328125 109.23046875 C46.73168077 106.6290308 45.39885991 103.95129142 44 101.0625 C42.5656721 98.10793393 41.15137652 95.2436975 39.41796875 92.453125 C37.93582842 89.88898141 37.10934355 87.53336984 36.3125 84.6875 C36.06113281 83.80449219 35.80976562 82.92148437 35.55078125 82.01171875 C35.36902344 81.34785156 35.18726563 80.68398438 35 80 C34.34 80 33.68 80 33 80 C29.35794354 73.24628366 26.46116175 66.85478369 24.6484375 59.390625 C24.03218657 56.80724787 24.03218657 56.80724787 22.4375 53.875 C21.13973275 51.2794655 20.64089817 49.48877886 20.125 46.6875 C19.24738532 42.26967696 17.4647731 38.92327613 15.1640625 35.08203125 C14 33 14 33 12.875 29.5 C12.58625 28.675 12.2975 27.85 12 27 C11.01 26.67 10.02 26.34 9 26 C7.2319579 22.51955349 6.5208976 19.01675004 5.875 15.1875 C5.70742188 14.21167969 5.53984375 13.23585938 5.3671875 12.23046875 C5.24601563 11.49441406 5.12484375 10.75835938 5 10 C4.34 10 3.68 10 3 10 C0.96564469 6.27034861 0 4.33094958 0 0 Z " fill="#DACE79" transform="translate(702,582)"/>
<path d="M0 0 C1.56627668 0.7420806 3.12785359 1.49408378 4.6875 2.25 C5.55761719 2.66765625 6.42773438 3.0853125 7.32421875 3.515625 C10.27416297 5.15209041 12.62291367 6.58937453 15 9 C15.671875 12.19921875 15.671875 12.19921875 15.75 15.6875 C15.50261862 19.65964251 15.50261862 19.65964251 17 23 C17.07271741 25.35313555 17.08370868 27.70833668 17.0625 30.0625 C17.05347656 31.35285156 17.04445313 32.64320313 17.03515625 33.97265625 C17.02355469 34.97167969 17.01195312 35.97070312 17 37 C13.74391446 34.31380644 12.32099371 30.79756354 10.64453125 27.03125 C10.18478157 26.01617371 10.18478157 26.01617371 9.71574402 24.98059082 C9.07125499 23.5531707 8.43015548 22.12421595 7.79223633 20.69384766 C6.81419515 18.50379582 5.82297845 16.3200675 4.83007812 14.13671875 C4.20493369 12.74775359 3.58055824 11.35844201 2.95703125 9.96875 C2.6602095 9.31555786 2.36338776 8.66236572 2.05757141 7.98937988 C0.79423012 5.1381464 0 3.15682619 0 0 Z " fill="#B7A75A" transform="translate(687,617)"/>
<path d="M0 0 C2.88044048 3.46004131 4.66416491 7.30249246 6.5 11.375 C7.09295572 12.67484179 7.68669679 13.97432563 8.28125 15.2734375 C8.56871094 15.90193604 8.85617187 16.53043457 9.15234375 17.17797852 C10.69973709 20.50407197 12.35464444 23.77334992 14.0625 27.01953125 C15.89144672 30.51739185 17.34506103 33.90884099 18.5 37.6875 C19.69316877 41.50957357 21.42747094 43.91296512 24 47 C24.75 49.8125 24.75 49.8125 25 52 C18.24083865 43.62869732 12.14086848 34.80827246 6.0625 25.9375 C5.19250366 24.6688208 5.19250366 24.6688208 4.30493164 23.37451172 C3.76215576 22.57932129 3.21937988 21.78413086 2.66015625 20.96484375 C2.17168213 20.2493335 1.68320801 19.53382324 1.17993164 18.79663086 C-1.37053352 14.91314791 -0.92211568 11.85572872 -0.5625 7.375 C-0.51029297 6.66859375 -0.45808594 5.9621875 -0.40429688 5.234375 C-0.27458793 3.48920013 -0.13795046 1.74454275 0 0 Z " fill="#8D7B3F" transform="translate(745,712)"/>
<path d="M0 0 C3 3.75 3 3.75 3 6 C3.66 6 4.32 6 5 6 C7.73427471 12.28883184 7.73427471 12.28883184 8.80859375 15.1640625 C11.05669633 21.13901957 13.92442627 26.65375939 16.99560547 32.2355957 C19.81469302 37.44569692 21.94325995 42.69274968 23.89453125 48.29296875 C24.87859077 51.03064394 24.87859077 51.03064394 26.63671875 53.17578125 C28 55 28 55 28 58 C28.66 58 29.32 58 30 58 C32.19990215 62.10648402 34.09106058 65.82233128 35.125 70.375 C35.67113096 74.0187643 35.67113096 74.0187643 38 76 C38.125 79.125 38.125 79.125 38 82 C35.11384891 80.55692446 34.69186191 78.59460743 33.375 75.6875 C32.92898438 74.72199219 32.48296875 73.75648438 32.0234375 72.76171875 C31 70 31 70 31 66 C30.34 66 29.68 66 29 66 C28.76925781 65.40574219 28.53851562 64.81148437 28.30078125 64.19921875 C24.3438639 54.14270549 19.82379547 44.39792731 14.86328125 34.80078125 C14.49589844 34.08277344 14.12851562 33.36476563 13.75 32.625 C13.41484375 31.97789062 13.0796875 31.33078125 12.734375 30.6640625 C12 29 12 29 12 27 C11.01 26.67 10.02 26.34 9 26 C7.2319579 22.51955349 6.5208976 19.01675004 5.875 15.1875 C5.70742188 14.21167969 5.53984375 13.23585938 5.3671875 12.23046875 C5.24601563 11.49441406 5.12484375 10.75835938 5 10 C4.34 10 3.68 10 3 10 C0.96564469 6.27034861 0 4.33094958 0 0 Z " fill="#BCAA5B" transform="translate(702,582)"/>
<path d="M0 0 C3.81366754 3.23878347 5.04733869 6.27949745 6.5625 11 C7.95797032 15.31909503 9.28684073 18.41525589 12 22 C12.92005735 24.26601661 13.76898944 26.56163064 14.5625 28.875 C14.97628906 30.06867187 15.39007812 31.26234375 15.81640625 32.4921875 C16.57289344 34.73418585 17.2929162 36.98903687 17.96484375 39.2578125 C19.00956116 42.02532805 19.89048021 43.03958239 22 45 C22.9921875 46.98046875 22.9921875 46.98046875 23.875 49.1875 C25.56643607 53.22193701 27.63529902 56.69722968 30.14453125 60.2734375 C31 62 31 62 30 65 C21.92649508 53.49381722 21.92649508 53.49381722 20.1875 48.4375 C19.32291256 45.10450843 19.32291256 45.10450843 17.55078125 43.58203125 C15.62995012 41.62249319 14.9555276 39.81399905 14 37.25 C13.6596875 36.36054687 13.319375 35.47109375 12.96875 34.5546875 C12.6490625 33.71164062 12.329375 32.86859375 12 32 C10.48917942 28.34885026 8.9083626 24.7739245 7.125 21.25 C6.41446431 19.83443665 5.70635682 18.4176532 5 17 C4.54882812 16.09507812 4.09765625 15.19015625 3.6328125 14.2578125 C3.17648437 13.30648437 2.72015625 12.35515625 2.25 11.375 C1.82203125 10.49585938 1.3940625 9.61671875 0.953125 8.7109375 C-0.12050096 5.65726366 -0.16963864 3.21370985 0 0 Z " fill="#B0A055" transform="translate(748,712)"/>
<path d="M0 0 C0.99 0.495 0.99 0.495 2 1 C2 1.99 2 2.98 2 4 C2.66 4 3.32 4 4 4 C5.49821059 7.37097383 6 9.20442119 6 13 C6.99 13.33 7.98 13.66 9 14 C12 19.22222222 12 19.22222222 12 22 C12.66 22 13.32 22 14 22 C14.17015625 22.556875 14.3403125 23.11375 14.515625 23.6875 C16.23315937 29.09590609 18.35342255 33.98062896 21 39 C21 37.68 21 36.36 21 35 C21.66 35 22.32 35 23 35 C23.67260351 36.76858691 24.33788395 38.53996016 25 40.3125 C25.37125 41.29863281 25.7425 42.28476562 26.125 43.30078125 C27 46 27 46 27 49 C21.81166903 46.8708793 19.67128802 42.73546512 17 38 C16.17066179 35.98589292 15.46734594 33.96489314 14.78125 31.8984375 C13.91981296 29.8051455 12.82516347 28.2829862 11.4375 26.5 C9.43608868 23.90712683 8.55358496 21.82974576 7.875 18.625 C7.58625 17.42875 7.2975 16.2325 7 15 C6.01 14.67 5.02 14.34 4 14 C3.0859375 12.109375 3.0859375 12.109375 2.375 9.75 C2.12878906 8.94175781 1.88257813 8.13351562 1.62890625 7.30078125 C0.96774674 4.88200515 0.39941191 2.47635384 0 0 Z " fill="#D8CB76" transform="translate(762,740)"/>
<path d="M0 0 C5.32658216 4.35641659 7.07823763 9.42344234 9.3125 15.8125 C9.67150391 16.77220703 10.03050781 17.73191406 10.40039062 18.72070312 C12.43434941 24.39641669 13.42068506 28.97493435 13 35 C8.1350838 32.5675419 6.64958791 24.09956781 5.0324707 19.29736328 C4.00743087 16.20283158 3.00318217 13.10167547 2 10 C1.62101563 8.94167969 1.24203125 7.88335938 0.8515625 6.79296875 C0 4 0 4 0 0 Z " fill="#DFDE9F" transform="translate(771,746)"/>
<path d="M0 0 C3.43601543 3.43601543 4.48909962 8.24115797 6.125 12.75 C6.68380859 14.235 6.68380859 14.235 7.25390625 15.75 C10.55023033 24.7816865 10.55023033 24.7816865 10 30 C8.68 29.67 7.36 29.34 6 29 C5.87882813 28.14535156 5.75765625 27.29070313 5.6328125 26.41015625 C5.38144531 24.75306641 5.38144531 24.75306641 5.125 23.0625 C4.88136719 21.40927734 4.88136719 21.40927734 4.6328125 19.72265625 C4.42398438 18.82417969 4.21515625 17.92570313 4 17 C3.34 16.67 2.68 16.34 2 16 C2 15.34 2 14.68 2 14 C1.01 14 0.02 14 -1 14 C-1.16873478 12.56274129 -1.33490737 11.12518162 -1.5 9.6875 C-1.5928125 8.88699219 -1.685625 8.08648438 -1.78125 7.26171875 C-2 5 -2 5 -2 2 C-1.34 1.34 -0.68 0.68 0 0 Z " fill="#AB9952" transform="translate(708,572)"/>
<path d="M0 0 C3.04483802 1.52241901 3.55835239 3.95036084 5 7 C5.32226562 7.61359375 5.64453125 8.2271875 5.9765625 8.859375 C7.83803409 12.41180171 9.32644162 15.84792314 10.5 19.6875 C11.69316877 23.50957357 13.42747094 25.91296512 16 29 C16.75 31.8125 16.75 31.8125 17 34 C13.53050995 29.71325229 10.24862587 25.3226546 7.04296875 20.8359375 C5.76769999 19.06567914 4.46221296 17.31635354 3.11328125 15.6015625 C0.07586632 11.56583637 -1.42836566 9.07818682 -0.875 3.9375 C-0.61782911 2.6178073 -0.33838359 1.30123873 0 0 Z " fill="#85733B" transform="translate(753,730)"/>
<path d="M0 0 C2.91226879 1.4561344 3.31842064 3.49960664 4.625 6.4375 C5.07101562 7.42621094 5.51703125 8.41492188 5.9765625 9.43359375 C7 12 7 12 7 14 C7.66 14 8.32 14 9 14 C10.17374173 16.43431639 11.33915763 18.87204182 12.5 21.3125 C12.83386719 22.00279297 13.16773438 22.69308594 13.51171875 23.40429688 C16 28.66015625 16 28.66015625 16 32 C16.66 32 17.32 32 18 32 C18.53341184 33.57914015 19.05125763 35.16354387 19.5625 36.75 C19.85253906 37.63171875 20.14257812 38.5134375 20.44140625 39.421875 C21.01697435 42.07834316 20.89248371 43.47031106 20 46 C16.26967758 38.67751525 12.77823731 31.25578144 9.609375 23.671875 C7.56770737 18.88449392 5.12333793 14.29873026 2.69726562 9.69726562 C0.87210241 6.13836666 0 4.07424545 0 0 Z " fill="#D7CB75" transform="translate(741,693)"/>
<path d="M0 0 C0.33 0.66 0.66 1.32 1 2 C1.66 2 2.32 2 3 2 C3.515625 3.19625 4.03125 4.3925 4.5625 5.625 C6.14365027 9.20517597 7.84955241 12.70065902 9.63305664 16.18432617 C12.26692217 21.32960013 14.60354926 26.34732533 16.2421875 31.90625 C17.42489224 35.17392909 19.25420168 38.03033541 21.109375 40.95703125 C22.18440207 43.42299247 21.9135922 44.52104555 21 47 C20.67 45.68 20.34 44.36 20 43 C19.34 43 18.68 43 18 43 C13.11549465 31.41619284 13.11549465 31.41619284 11.5 26.8125 C10.42277962 23.83937176 9.03253902 21.22970234 7.4375 18.5 C5.06250468 14.38667979 3.92934334 10.64671672 3 6 C2.34 6 1.68 6 1 6 C0.67 4.02 0.34 2.04 0 0 Z " fill="#C8B965" transform="translate(726,665)"/>
<path d="M0 0 C0.99 1.485 0.99 1.485 2 3 C2.83724609 4.24910156 2.83724609 4.24910156 3.69140625 5.5234375 C4.30886719 6.46445312 4.92632813 7.40546875 5.5625 8.375 C6.18253906 9.31085937 6.80257812 10.24671875 7.44140625 11.2109375 C8.94503938 13.90164941 9.59751863 15.96760612 10 19 C9.34 18.67 8.68 18.34 8 18 C8 17.01 8 16.02 8 15 C7.34 15 6.68 15 6 15 C6.33 17.31 6.66 19.62 7 22 C3.56433295 20.85477765 2.51403532 19.58219891 0.78515625 16.453125 C-0.90240898 11.18053315 -0.27301632 5.46791014 0 0 Z " fill="#EDEBA8" transform="translate(703,598)"/>
<path d="M0 0 C3.44546486 1.72273243 4.00667607 5.30405779 5.24609375 8.7890625 C6.46117836 13.96418971 5.83483189 18.80044922 5 24 C4.67 23.34 4.34 22.68 4 22 C3.34 22 2.68 22 2 22 C1.86722656 21.22914063 1.73445312 20.45828125 1.59765625 19.6640625 C1.42105469 18.66117188 1.24445312 17.65828125 1.0625 16.625 C0.88847656 15.62726562 0.71445312 14.62953125 0.53515625 13.6015625 C0.12287938 11.03090344 0.12287938 11.03090344 -1 9 C-1.23333333 2.46666667 -1.23333333 2.46666667 0 0 Z " fill="#C0B060" transform="translate(693,534)"/>
<path d="M0 0 C4.14388408 2.07194204 5.1462805 8.72537964 6.6875 12.875 C7.11611328 13.99003906 7.54472656 15.10507812 7.98632812 16.25390625 C8.38658203 17.32253906 8.78683594 18.39117188 9.19921875 19.4921875 C9.56877686 20.47558105 9.93833496 21.45897461 10.3190918 22.47216797 C11 25 11 25 10 28 C9.731875 27.4225 9.46375 26.845 9.1875 26.25 C8.07558892 23.99496854 8.07558892 23.99496854 6.59375 22.1484375 C1.34117829 15.06776485 -0.84287888 8.80340168 0 0 Z " fill="#C6B967" transform="translate(744,669)"/>
<path d="M0 0 C1.485 0.99 1.485 0.99 3 2 C3.4765625 5.00390625 3.4765625 5.00390625 3.625 8.5625 C3.44632053 12.59983583 3.44632053 12.59983583 5 16 C5.07271741 18.35313555 5.08370868 20.70833668 5.0625 23.0625 C5.05347656 24.35285156 5.04445313 25.64320313 5.03515625 26.97265625 C5.02355469 27.97167969 5.01195312 28.97070312 5 30 C2.11965107 27.37011619 1.11511275 25.42611143 0.79467773 21.45629883 C0.75802002 20.46654053 0.7213623 19.47678223 0.68359375 18.45703125 C0.62075195 16.84731445 0.62075195 16.84731445 0.55664062 15.20507812 C0.51732422 14.08552734 0.47800781 12.96597656 0.4375 11.8125 C0.39431641 10.68134766 0.35113281 9.55019531 0.30664062 8.38476562 C0.20050901 5.58996646 0.09845615 2.79507838 0 0 Z " fill="#AD9D54" transform="translate(699,624)"/>
<path d="M0 0 C3 3.75 3 3.75 3 6 C3.66 6 4.32 6 5 6 C6.72765504 9.97360659 8.3741461 13.95876107 9.9375 18 C11.14862796 21.07905992 12.44452383 23.87726669 14.1875 26.6875 C16.21985153 30.40179762 16.66042998 32.84026721 17 37 C15 36 15 36 14.25390625 33.96875 C13.79315766 32.32359118 13.33482136 30.67775485 12.87890625 29.03125 C12.58886719 28.3609375 12.29882812 27.690625 12 27 C11.01 26.67 10.02 26.34 9 26 C7.2319579 22.51955349 6.5208976 19.01675004 5.875 15.1875 C5.70742188 14.21167969 5.53984375 13.23585938 5.3671875 12.23046875 C5.24601563 11.49441406 5.12484375 10.75835938 5 10 C4.34 10 3.68 10 3 10 C0.96564469 6.27034861 0 4.33094958 0 0 Z " fill="#C6B562" transform="translate(702,582)"/>
<path d="M0 0 C0.33 0 0.66 0 1 0 C2.80504586 6.32969414 4.40506273 12.62113836 5.5703125 19.1015625 C5.82263993 21.00049519 5.82263993 21.00049519 7 22 C7.04063832 23.66617115 7.042721 25.33388095 7 27 C6.34 27 5.68 27 5 27 C0.6903478 18.93222847 -2.27304014 12.24968405 -1 3 C-0.67 2.01 -0.34 1.02 0 0 Z " fill="#9E8B49" transform="translate(691,538)"/>
<path d="M0 0 C2.09251846 3.13877769 3.26383385 6.04212542 4.6015625 9.56640625 C4.8428891 10.20110336 5.0842157 10.83580048 5.33285522 11.48973083 C5.84060329 12.82798864 6.34647369 14.16696017 6.85058594 15.5065918 C7.62424211 17.56048797 8.40543603 19.61140206 9.1875 21.66210938 C9.68014056 22.96337024 10.17234321 24.26479698 10.6640625 25.56640625 C11.11217285 26.75177979 11.5602832 27.93715332 12.02197266 29.15844727 C13 32 13 32 13 34 C10 33 10 33 8.9375 31.375 C8 29 8 29 7 25.4375 C6.16311503 21.91945123 6.16311503 21.91945123 4 19 C3.51343136 17.02128752 3.02939852 15.04174672 2.578125 13.0546875 C2.00363841 10.73576628 2.00363841 10.73576628 0.3125 7.8125 C-1.1764207 4.62195564 -1.06464903 3.29073336 0 0 Z " fill="#917E42" transform="translate(732,635)"/>
<path d="M0 0 C2.38750924 2.13549438 3.50813562 3.8403673 4.5 6.875 C5.66362388 10.20747259 7.13183245 12.99468698 9 16 C9.29390625 16.74765625 9.5878125 17.4953125 9.890625 18.265625 C11.56439622 22.39111743 13.74626788 26.24306892 15.85546875 30.16015625 C17.04104516 33.10184243 17.19092554 34.12938756 16 37 C15.67 35.35 15.34 33.7 15 32 C14.01 32 13.02 32 12 32 C11.34 28.7 10.68 25.4 10 22 C9.34 22 8.68 22 8 22 C7.75765625 21.3709375 7.5153125 20.741875 7.265625 20.09375 C5.33447432 15.16188827 3.29954653 10.42610335 0.734375 5.7890625 C0 4 0 4 0 0 Z " fill="#E7E29A" transform="translate(749,703)"/>
<path d="M0 0 C0.33 0 0.66 0 1 0 C1.061875 0.969375 1.12375 1.93875 1.1875 2.9375 C1.64017983 6.28192564 2.77936185 8.60912957 4.5 11.5 C6.81782302 15.39605578 7.4151026 18.48793438 8 23 C8.95647687 24.87289116 8.95647687 24.87289116 10.125 26.6875 C12 30 12 30 11.6171875 32.20703125 C11.41351562 32.79871094 11.20984375 33.39039063 11 34 C4.60436231 22.78631525 -0.22109791 13.04477697 0 0 Z " fill="#C3B666" transform="translate(702,605)"/>
<path d="M0 0 C3.78114129 3.78114129 4.91347039 9.53710417 6.6875 14.5 C7.33041992 16.24990234 7.33041992 16.24990234 7.98632812 18.03515625 C8.38658203 19.14761719 8.78683594 20.26007812 9.19921875 21.40625 C9.56877686 22.43041016 9.93833496 23.45457031 10.3190918 24.50976562 C11 27 11 27 10 29 C6.86550203 25.44756896 5.37834536 22.50259486 4 18 C3.484375 17.13375 2.96875 16.2675 2.4375 15.375 C0.31491811 10.39154686 0.2518734 5.3675089 0 0 Z " fill="#C8BD71" transform="translate(755,697)"/>
<path d="M0 0 C3.96 1.98 3.96 1.98 8 4 C8 8.29 8 12.58 8 17 C5.09986152 14.09986152 3.95560585 12.17108334 2.3125 8.5 C1.87550781 7.5409375 1.43851563 6.581875 0.98828125 5.59375 C0 3 0 3 0 0 Z " fill="#BFB05F" transform="translate(687,617)"/>
<path d="M0 0 C2.40947505 1.28505336 3.77950335 2.29156561 4.60546875 4.9453125 C4.75628906 5.66460938 4.90710938 6.38390625 5.0625 7.125 C5.371875 8.40375 5.68125 9.6825 6 11 C6.99 11.33 7.98 11.66 9 12 C10.39288007 14.261967 11.58967008 16.43692744 12.75 18.8125 C13.07871094 19.44220703 13.40742187 20.07191406 13.74609375 20.72070312 C16.07287222 25.39880415 16.07287222 25.39880415 15.703125 28.44921875 C15.47109375 28.96097656 15.2390625 29.47273437 15 30 C14.67 28.35 14.34 26.7 14 25 C13.34 25 12.68 25 12 25 C11.16180842 23.37750059 10.3295884 21.75191503 9.5 20.125 C9.0359375 19.22007812 8.571875 18.31515625 8.09375 17.3828125 C7 15 7 15 7 13 C6.34 13 5.68 13 5 13 C3.11304374 8.71146306 1.41807378 4.47238653 0 0 Z " fill="#E8E49D" transform="translate(717,639)"/>
<path d="M0 0 C3.00412163 1.50206081 3.54641699 4.03469065 5 7 C5.53625 7.598125 6.0725 8.19625 6.625 8.8125 C8.78852885 12.25447772 8.75252361 16.00624304 9 20 C5.3236862 16.71757696 3.3388806 13.27450592 1 9 C0.67 8.67 0.34 8.34 0 8 C-0.14115161 5.32941149 -0.04247107 2.67567762 0 0 Z " fill="#E1D98A" transform="translate(747,685)"/>
<path d="M0 0 C3.38499403 3.01532659 5.08440805 5.82334272 6.8125 10 C7.25207031 11.03125 7.69164062 12.0625 8.14453125 13.125 C9.00555303 16.01866224 9.08164957 17.23947104 8 20 C7.49339844 19.18595703 7.49339844 19.18595703 6.9765625 18.35546875 C6.53054688 17.64003906 6.08453125 16.92460938 5.625 16.1875 C5.18414063 15.47980469 4.74328125 14.77210938 4.2890625 14.04296875 C3.21811524 12.34567961 2.11323761 10.66985642 1 9 C0.5859375 6.73828125 0.5859375 6.73828125 0.375 4.3125 C0.30023437 3.50425781 0.22546875 2.69601562 0.1484375 1.86328125 C0.09945312 1.24839844 0.05046875 0.63351562 0 0 Z " fill="#DED584" transform="translate(708,619)"/>
<path d="M0 0 C0.99 0.495 0.99 0.495 2 1 C2 1.99 2 2.98 2 4 C2.66 4 3.32 4 4 4 C5.49821059 7.37097383 6 9.20442119 6 13 C6.99 13.33 7.98 13.66 9 14 C11.28341107 17.24484731 11.17615457 20.12459955 11 24 C10.34 23.67 9.68 23.34 9 23 C8.40494001 20.95475679 8.04533219 18.90666043 7.66015625 16.8125 C7.44230469 16.214375 7.22445312 15.61625 7 15 C6.01 14.67 5.02 14.34 4 14 C3.0859375 12.109375 3.0859375 12.109375 2.375 9.75 C2.12878906 8.94175781 1.88257813 8.13351562 1.62890625 7.30078125 C0.96774674 4.88200515 0.39941191 2.47635384 0 0 Z " fill="#CDBE69" transform="translate(762,740)"/>
<path d="M0 0 C2.63260699 2.3053903 3.7001878 4.35008104 4.875 7.625 C6.54526508 12.07037478 8.61862095 15.97739752 11.14453125 19.9921875 C12.18384054 22.43147963 11.89413548 23.55346979 11 26 C10.46375 24.906875 9.9275 23.81375 9.375 22.6875 C7.64549876 19.19130395 5.75196791 15.82105366 3.8125 12.4375 C1.44478874 8.1553421 0.21663098 4.87419715 0 0 Z " fill="#B8A85A" transform="translate(714,639)"/>
<path d="M0 0 C0.33 0 0.66 0 1 0 C1.33 7.92 1.66 15.84 2 24 C-1.50858163 20.49141837 -1.50858163 20.49141837 -2 17 C-1.92993164 14.98535156 -1.92993164 14.98535156 -1.66015625 12.890625 C-1.56669922 12.13652344 -1.47324219 11.38242187 -1.37695312 10.60546875 C-1.22129883 9.43951172 -1.22129883 9.43951172 -1.0625 8.25 C-0.96259766 7.45722656 -0.86269531 6.66445313 -0.75976562 5.84765625 C-0.51307129 3.89759629 -0.2574122 1.94867414 0 0 Z " fill="#BAAA5C" transform="translate(721,670)"/>
<path d="M0 0 C3.41904785 2.80537259 5.29305981 4.81099087 5.875 9.1875 C6 13 6 13 5 15 C1.65405342 9.81917949 0.43173504 6.15222436 0 0 Z " fill="#F1F1B2" transform="translate(771,746)"/>
<path d="M0 0 C0.66 0 1.32 0 2 0 C2 0.99 2 1.98 2 3 C2.99 3.33 3.98 3.66 5 4 C5.984375 5.70703125 5.984375 5.70703125 6.75 7.8125 C7.01296875 8.49957031 7.2759375 9.18664062 7.546875 9.89453125 C8.06056958 12.28143969 7.76282269 13.70637773 7 16 C0.29612756 5.62642369 0.29612756 5.62642369 0 0 Z " fill="#F1F2B4" transform="translate(760,723)"/>
<path d="M0 0 C0.66 0 1.32 0 2 0 C2.40992188 0.96421875 2.81984375 1.9284375 3.2421875 2.921875 C3.78639353 4.19794431 4.33066797 5.47398444 4.875 6.75 C5.14441406 7.38421875 5.41382813 8.0184375 5.69140625 8.671875 C6.7971021 11.26082137 7.89036655 13.80252359 9.2578125 16.265625 C10 18 10 18 9 21 C7.87159372 18.93930083 6.74721229 16.87656904 5.625 14.8125 C4.99851562 13.66394531 4.37203125 12.51539063 3.7265625 11.33203125 C0 4.14027149 0 4.14027149 0 0 Z " fill="#F2F3B7" transform="translate(709,613)"/>
<path d="M0 0 C2.36020967 2.1485844 3.71551468 4.11743365 5.04296875 7.01171875 C5.56987305 8.14770508 5.56987305 8.14770508 6.10742188 9.30664062 C6.46384766 10.09232422 6.82027344 10.87800781 7.1875 11.6875 C7.55552734 12.48478516 7.92355469 13.28207031 8.30273438 14.10351562 C9.2077297 16.06629769 10.10465652 18.03279639 11 20 C10.01 20.33 9.02 20.66 8 21 C6.66087415 17.87745057 5.32969342 14.75157642 4 11.625 C3.6184375 10.73554688 3.236875 9.84609375 2.84375 8.9296875 C2.30234375 7.65351563 2.30234375 7.65351563 1.75 6.3515625 C1.41484375 5.56604004 1.0796875 4.78051758 0.734375 3.97119141 C0 2 0 2 0 0 Z " fill="#242112" transform="translate(617,398)"/>
<path d="M0 0 C3.9813236 1.32710787 4.33187507 2.98751373 6.15625 6.58007812 C6.5171875 7.31677734 6.878125 8.05347656 7.25 8.8125 C7.81460938 9.90014648 7.81460938 9.90014648 8.390625 11.00976562 C8.74125 11.71423828 9.091875 12.41871094 9.453125 13.14453125 C9.93507324 14.10903198 9.93507324 14.10903198 10.42675781 15.09301758 C11.12470442 17.41484933 10.76842067 18.73466818 10 21 C8.705826 18.43873936 7.41459216 15.87606642 6.125 13.3125 C5.76019531 12.59126953 5.39539063 11.87003906 5.01953125 11.12695312 C3.1820758 7.46874636 1.43861498 3.8388305 0 0 Z " fill="#E9E6A0" transform="translate(738,682)"/>
<path d="M0 0 C1.79378179 2.69067269 2.97313958 5.08578257 4.1875 8.0625 C4.55230469 8.94035156 4.91710937 9.81820312 5.29296875 10.72265625 C6 13 6 13 5 15 C3.125 14.4375 3.125 14.4375 1 13 C-0.90167351 8.29109417 -1.19997144 4.91988289 0 0 Z " fill="#927F42" transform="translate(726,619)"/>
<path d="M0 0 C0.66 0 1.32 0 2 0 C2.67260351 1.76858691 3.33788395 3.53996016 4 5.3125 C4.37125 6.29863281 4.7425 7.28476562 5.125 8.30078125 C6 11 6 11 6 14 C2.125 12.125 2.125 12.125 1 11 C0.76636119 9.15108054 0.58696365 7.29511969 0.4375 5.4375 C0.35371094 4.42558594 0.26992188 3.41367187 0.18359375 2.37109375 C0.12300781 1.58863281 0.06242188 0.80617188 0 0 Z " fill="#D0CB89" transform="translate(783,775)"/>
<path d="M0 0 C0.33 0 0.66 0 1 0 C2.33257403 14.78132118 2.33257403 14.78132118 1 21 C0.67 21 0.34 21 0 21 C-0.13277344 20.19175781 -0.26554688 19.38351562 -0.40234375 18.55078125 C-0.57894531 17.48214844 -0.75554688 16.41351562 -0.9375 15.3125 C-1.11152344 14.25675781 -1.28554688 13.20101562 -1.46484375 12.11328125 C-1.93167121 9.39750396 -2.44422616 6.69875765 -3 4 C-2.34 3.67 -1.68 3.34 -1 3 C-0.67 2.01 -0.34 1.02 0 0 Z " fill="#A08B48" transform="translate(701,563)"/>
<path d="M0 0 C3.13161332 1.56580666 3.45604434 4.17815522 4.6875 7.375 C5.14511719 8.53773438 5.60273437 9.70046875 6.07421875 10.8984375 C7 14 7 14 6 17 C5.67 15.68 5.34 14.36 5 13 C4.34 13 3.68 13 3 13 C0.78145293 8.37802694 -0.38281159 5.23175837 0 0 Z " fill="#D9CD78" transform="translate(724,654)"/>
<path d="M0 0 C0.33 0 0.66 0 1 0 C1 5.61 1 11.22 1 17 C1.66 17 2.32 17 3 17 C2.67 19.97 2.34 22.94 2 26 C1.34 26 0.68 26 0 26 C0 17.42 0 8.84 0 0 Z " fill="#6D6032" transform="translate(296,492)"/>
<path d="M0 0 C0.66 0 1.32 0 2 0 C3.00399524 2.62353518 4.00334445 5.24867795 5 7.875 C5.28617188 8.62136719 5.57234375 9.36773438 5.8671875 10.13671875 C8 15.7734375 8 15.7734375 8 18 C7.34 18 6.68 18 6 18 C5.34 15.03 4.68 12.06 4 9 C3.34 9 2.68 9 2 9 C0.14223235 5.86501708 -0.20140476 3.62528568 0 0 Z " fill="#DED482" transform="translate(762,735)"/>
<path d="M0 0 C2.76826894 2.47643336 4.44356974 5.20609442 6.25 8.4375 C6.79140625 9.38496094 7.3328125 10.33242188 7.890625 11.30859375 C9.07034549 14.17066212 9.14356445 15.18762929 8 18 C7.67 16.68 7.34 15.36 7 14 C6.34 14 5.68 14 5 14 C4.16235732 12.04350603 3.33000941 10.08474444 2.5 8.125 C2.0359375 7.03445313 1.571875 5.94390625 1.09375 4.8203125 C0 2 0 2 0 0 Z " fill="#B9A95B" transform="translate(739,694)"/>
<path d="M0 0 C2.53623475 3.14010017 4.25334411 6.36695576 6 10 C6.55107422 11.03640625 6.55107422 11.03640625 7.11328125 12.09375 C7.48839844 12.8053125 7.86351562 13.516875 8.25 14.25 C8.60578125 14.91515625 8.9615625 15.5803125 9.328125 16.265625 C9.54984375 16.83796875 9.7715625 17.4103125 10 18 C9.67 18.66 9.34 19.32 9 20 C7.67578036 17.79799468 6.36573271 15.58938174 5.0625 13.375 C4.68931641 12.75753906 4.31613281 12.14007812 3.93164062 11.50390625 C1.68950829 7.66602208 0.43691823 4.50788649 0 0 Z " fill="#D6C972" transform="translate(713,609)"/>
<path d="M0 0 C0.66 0 1.32 0 2 0 C2.33773437 0.74765625 2.67546875 1.4953125 3.0234375 2.265625 C3.46945312 3.25046875 3.91546875 4.2353125 4.375 5.25 C5.03628906 6.71179688 5.03628906 6.71179688 5.7109375 8.203125 C6.91221489 10.92562513 6.91221489 10.92562513 8.2265625 13.109375 C9.18975893 15.46385516 8.84049804 16.64660549 8 19 C1.48063781 6.51480638 1.48063781 6.51480638 0 0 Z " fill="#E9E59E" transform="translate(727,647)"/>
<path d="M0 0 C3 3.75 3 3.75 3 6 C3.66 6 4.32 6 5 6 C8.07692308 12.4 8.07692308 12.4 7.6875 15.4375 C7.460625 15.953125 7.23375 16.46875 7 17 C6.34 14.69 5.68 12.38 5 10 C4.34 10 3.68 10 3 10 C0.96564469 6.27034861 0 4.33094958 0 0 Z " fill="#C2B15F" transform="translate(702,582)"/>
<path d="M0 0 C1.59412284 3.18824568 1.10174735 6.62896662 1.0625 10.125 C1.05798828 10.87910156 1.05347656 11.63320313 1.04882812 12.41015625 C1.03703499 14.27347127 1.01909942 16.13674555 1 18 C0.01 18.33 -0.98 18.66 -2 19 C-1.979375 17.9275 -1.95875 16.855 -1.9375 15.75 C-1.9857984 12.85209576 -2.13155885 10.71387859 -3 8 C-2.67 8 -2.34 8 -2 8 C-1.855625 6.865625 -1.71125 5.73125 -1.5625 4.5625 C-1 1 -1 1 0 0 Z " fill="#AB9951" transform="translate(699,548)"/>
<path d="M0 0 C3.44184294 1.14728098 4.08007717 2.03284654 6 5 C7.06546953 8.1964086 7.07427838 10.65747276 7 14 C4.34920279 12.67460139 4.09657408 11.38025386 2.9375 8.6875 C2.59589844 7.90761719 2.25429688 7.12773438 1.90234375 6.32421875 C1.08711691 4.22439203 0.48741918 2.19589876 0 0 Z " fill="#E2DC91" transform="translate(777,767)"/>
<path d="M0 0 C2.66604583 1.33302292 2.99124788 2.18990481 4 5 C4.16468671 7.69159843 4.09005213 10.29843606 4 13 C1.33395417 11.66697708 1.00875212 10.81009519 0 8 C-0.16468671 5.30840157 -0.09005213 2.70156394 0 0 Z " fill="#D2C46F" transform="translate(740,664)"/>
<path d="M0 0 C0.33 0.66 0.66 1.32 1 2 C1.66 2 2.32 2 3 2 C3.65043719 3.72744016 4.29514844 5.4570369 4.9375 7.1875 C5.29714844 8.15042969 5.65679688 9.11335937 6.02734375 10.10546875 C6.91156562 12.7368278 7.52568586 15.26894908 8 18 C6 17 6 17 5.1484375 15.00390625 C4.89320313 14.19824219 4.63796875 13.39257812 4.375 12.5625 C4.11460937 11.75941406 3.85421875 10.95632813 3.5859375 10.12890625 C3 8 3 8 3 6 C2.34 6 1.68 6 1 6 C0.67 4.02 0.34 2.04 0 0 Z " fill="#BAAA5C" transform="translate(726,665)"/>
<path d="M0 0 C1.0161846 1.32103998 2.01133494 2.65824027 3 4 C3.721875 4.94875 4.44375 5.8975 5.1875 6.875 C7.17028989 10.29360326 7.36918412 12.12356674 7 16 C4.11384891 14.55692446 3.69186191 12.59460743 2.375 9.6875 C1.92898438 8.72199219 1.48296875 7.75648438 1.0234375 6.76171875 C0 4 0 4 0 0 Z " fill="#C4B361" transform="translate(733,648)"/>
<path d="M0 0 C2.02907167 3.3146667 2.12742133 5.4315979 1.625 9.25 C1.51414062 10.14203125 1.40328125 11.0340625 1.2890625 11.953125 C1.19367187 12.62859375 1.09828125 13.3040625 1 14 C0.34 14 -0.32 14 -1 14 C-1.16873478 12.56274129 -1.33490737 11.12518162 -1.5 9.6875 C-1.5928125 8.88699219 -1.685625 8.08648438 -1.78125 7.26171875 C-2 5 -2 5 -2 2 C-1.34 1.34 -0.68 0.68 0 0 Z " fill="#AA9750" transform="translate(708,572)"/>
<path d="M0 0 C0.66 0.33 1.32 0.66 2 1 C2 5.62 2 10.24 2 15 C-1 12 -1 12 -1.07421875 9.08203125 C-0.94660156 8.00308594 -0.81898438 6.92414062 -0.6875 5.8125 C-0.56761719 4.72582031 -0.44773437 3.63914062 -0.32421875 2.51953125 C-0.21722656 1.68808594 -0.11023438 0.85664062 0 0 Z " fill="#BBAC5D" transform="translate(702,639)"/>
<path d="M0 0 C2.92602095 1.46301048 3.09705209 3.41022764 4.1875 6.4375 C4.55230469 7.42621094 4.91710937 8.41492188 5.29296875 9.43359375 C6 12 6 12 5 14 C1.20937727 9.17557107 -0.28418033 6.25196725 0 0 Z " fill="#AF9F55" transform="translate(744,669)"/>
<path d="M0 0 C0.99 0.495 0.99 0.495 2 1 C3.67479795 6.02439385 3.23615622 10.90085558 2 16 C1.67 16 1.34 16 1 16 C0.67 10.72 0.34 5.44 0 0 Z " fill="#BBAB5D" transform="translate(701,555)"/>
<path d="M0 0 C1.90389849 2.85584773 2.69462177 4.9311762 3.625 8.1875 C3.88539063 9.08855469 4.14578125 9.98960937 4.4140625 10.91796875 C4.60742188 11.60503906 4.80078125 12.29210937 5 13 C4.34 13 3.68 13 3 13 C-1.07877462 5.9452954 -1.07877462 5.9452954 -0.75 2 C-0.5025 1.34 -0.255 0.68 0 0 Z " fill="#8C783E" transform="translate(732,635)"/>
<path d="M0 0 C2.36557373 2.13300328 3.62967528 3.95949399 4.75 6.9375 C5.01296875 7.60652344 5.2759375 8.27554688 5.546875 8.96484375 C6.07046274 11.31647491 5.74954377 12.73617523 5 15 C4.15733289 13.25447527 3.32619962 11.5033792 2.5 9.75 C2.0359375 8.77546875 1.571875 7.8009375 1.09375 6.796875 C0 4 0 4 0 0 Z " fill="#E4DD92" transform="translate(769,747)"/>
<path d="M0 0 C4.81397943 4.05387741 5.88541926 7.0217942 7 13 C2.18602057 8.94612259 1.11458074 5.9782058 0 0 Z " fill="#D4CD83" transform="translate(759,713)"/>
<path d="M0 0 C0.33 0 0.66 0 1 0 C1.66 4.95 2.32 9.9 3 15 C0.33979185 13.66989593 0.22101236 12.51646918 -0.75 9.75 C-1.79539099 6.48900423 -2.08675593 5.32700314 -1.1875 1.9375 C-0.795625 1.298125 -0.40375 0.65875 0 0 Z " fill="#C3B462" transform="translate(716,672)"/>
<path d="M0 0 C0.99 0.495 0.99 0.495 2 1 C2.28875 1.969375 2.5775 2.93875 2.875 3.9375 C3.6889291 7.10056957 3.6889291 7.10056957 6.125 8.375 C6.74375 8.58125 7.3625 8.7875 8 9 C7.67 10.98 7.34 12.96 7 15 C0.66666667 5.5 0.66666667 5.5 0 0 Z " fill="#A6914C" transform="translate(724,625)"/>
<path d="M0 0 C0 3 0 3 -2.125 5.375 C-5.01789329 8.01633735 -7.96250644 10.52762152 -11 13 C-9.46356148 9.31930113 -7.21849055 7.01224796 -4.375 4.25 C-3.55773437 3.45078125 -2.74046875 2.6515625 -1.8984375 1.828125 C-0.95871094 0.92320312 -0.95871094 0.92320312 0 0 Z " fill="#C3BA73" transform="translate(370,408)"/>
<path d="M0 0 C0.66 0 1.32 0 2 0 C2.86916887 1.40751221 3.71985149 2.8264521 4.5625 4.25 C5.03816406 5.03890625 5.51382813 5.8278125 6.00390625 6.640625 C7.13022151 9.30844625 7.0169313 10.34501768 6 13 C4.99491199 11.21118264 3.99607264 9.41885304 3 7.625 C2.1646875 6.12839844 2.1646875 6.12839844 1.3125 4.6015625 C0 2 0 2 0 0 Z " fill="#BCAC5D" transform="translate(707,626)"/>
<path d="M0 0 C3 3.75 3 3.75 3 6 C3.66 6 4.32 6 5 6 C5.66 8.31 6.32 10.62 7 13 C5.5 11.625 5.5 11.625 4 10 C4 9.34 4 8.68 4 8 C3.34 8 2.68 8 2 8 C2 7.34 2 6.68 2 6 C1.34 6 0.68 6 0 6 C0 4.02 0 2.04 0 0 Z " fill="#D5C974" transform="translate(702,586)"/>
<path d="M0 0 C2.42776667 1.29480889 3.76967674 2.35838519 4.7109375 4.98046875 C5.19782198 6.9738726 5.60391861 8.98658625 6 11 C2.99229937 8.99486625 1.24691165 7.42900705 0 4 C0 2.68 0 1.36 0 0 Z " fill="#A08F4B" transform="translate(762,746)"/>
<path d="M0 0 C2 1 2 1 2.8515625 3.28515625 C3.10679687 4.20167969 3.36203125 5.11820313 3.625 6.0625 C3.88539063 6.98160156 4.14578125 7.90070312 4.4140625 8.84765625 C4.60742188 9.55792969 4.80078125 10.26820313 5 11 C2 10 2 10 0.8125 8.3125 C-0.19313465 5.45030907 -0.13689641 3.01172092 0 0 Z " fill="#9F8D4A" transform="translate(740,658)"/>
<path d="M0 0 C3.64666307 2.26786278 4.67897228 4.06404326 5.75 8.1875 C5.99234375 9.08855469 6.2346875 9.98960937 6.484375 10.91796875 C6.65453125 11.60503906 6.8246875 12.29210937 7 13 C6.34 13 5.68 13 5 13 C3.11304374 8.71146306 1.41807378 4.47238653 0 0 Z " fill="#E1D889" transform="translate(717,639)"/>
<path d="M0 0 C0.99 0.33 1.98 0.66 3 1 C3.33 3.97 3.66 6.94 4 10 C2 9 2 9 0.875 6.6875 C0 4 0 4 0 0 Z " fill="#CFC06B" transform="translate(709,599)"/>
<path d="M0 0 C0.66 0 1.32 0 2 0 C6.06153846 6.4 6.06153846 6.4 5.75 9.4375 C5.5025 9.953125 5.255 10.46875 5 11 C0.57142857 3.57142857 0.57142857 3.57142857 0 0 Z " fill="#DBCF7B" transform="translate(735,680)"/>
<path d="M0 0 C1.60031344 3.20062687 0.03173691 5.72271806 -1 9 C-1.66 8.34 -2.32 7.68 -3 7 C-3.99 7.66 -4.98 8.32 -6 9 C-4.47291037 5.56404834 -2.40072955 2.88087546 0 0 Z " fill="#302915" transform="translate(218,590)"/>
<path d="M0 0 C0.99 0.495 0.99 0.495 2 1 C2 1.99 2 2.98 2 4 C2.99 4.33 3.98 4.66 5 5 C5.33 7.31 5.66 9.62 6 12 C3.32289809 10.66144904 3.04870906 9.27941912 1.875 6.5625 C1.52179687 5.75941406 1.16859375 4.95632813 0.8046875 4.12890625 C0 2 0 2 0 0 Z " fill="#E9E6A0" transform="translate(750,697)"/>
<path d="M0 0 C0.66 0 1.32 0 2 0 C5.11450382 4.15267176 5.11450382 4.15267176 4.6875 7.3125 C4.460625 7.869375 4.23375 8.42625 4 9 C1.47740939 7.02579865 1.0070192 6.03254358 0.3125 2.8125 C0.209375 1.884375 0.10625 0.95625 0 0 Z " fill="#DFD686" transform="translate(704,594)"/>
<path d="M0 0 C3.67230705 3.07999946 4.56802365 5.2482602 5 10 C2.9754262 8.06745228 1.57894208 6.36841312 0 4 C0 2.68 0 1.36 0 0 Z " fill="#F2F3B6" transform="translate(721,639)"/>
<path d="M0 0 C2.60018816 3.90028225 2.15085514 7.47434569 2 12 C1.67 10.68 1.34 9.36 1 8 C0.34 8 -0.32 8 -1 8 C-0.67 5.36 -0.34 2.72 0 0 Z " fill="#383018" transform="translate(260,714)"/>
<path d="M0 0 C2.33333823 2.12121657 3.9148886 4.01594365 5 7 C4.625 9.25 4.625 9.25 4 11 C0 4.5 0 4.5 0 0 Z " fill="#E0D889" transform="translate(703,608)"/>
<path d="M0 0 C2.00773956 2.00773956 2.99392854 3.36873617 4 6 C3.625 8.25 3.625 8.25 3 10 C0.64551835 7.44931155 0.01672076 6.28982642 -0.1875 2.75 C-0.125625 1.8425 -0.06375 0.935 0 0 Z " fill="#E1D98B" transform="translate(709,603)"/>
<path d="M0 0 C2.4294516 3.6441774 2.16179575 5.71241272 2 10 C0.4375 8.9375 0.4375 8.9375 -1 7 C-0.6875 3.3125 -0.6875 3.3125 0 0 Z " fill="#E7E6A9" transform="translate(775,751)"/>
<path d="M0 0 C0.66 0 1.32 0 2 0 C4.29013653 3.4352048 4.17842973 4.985331 4 9 C0 4.5 0 4.5 0 0 Z " fill="#DACE79" transform="translate(731,671)"/>
<path d="M0 0 C1.5 1.375 1.5 1.375 3 3 C3 3.66 3 4.32 3 5 C3.99 5.33 4.98 5.66 6 6 C5.67 7.32 5.34 8.64 5 10 C4.16121545 8.71186658 3.32913217 7.41936744 2.5 6.125 C2.0359375 5.40570312 1.571875 4.68640625 1.09375 3.9453125 C0 2 0 2 0 0 Z " fill="#DACF7A" transform="translate(711,629)"/>
<path d="M0 0 C2.11635213 2.57642867 3.67339287 4.62505968 4 8 C3.01 9.485 3.01 9.485 2 11 C0.80712589 7.12315913 0 4.08378077 0 0 Z " fill="#3E351A" transform="translate(326,204)"/>
<path d="M0 0 C2.32947183 2.11770166 3.88750845 4.03335588 5 7 C4.67 7.99 4.34 8.98 4 10 C0 4.5 0 4.5 0 0 Z " fill="#CFC370" transform="translate(779,774)"/>
<path d="M0 0 C0.66 0 1.32 0 2 0 C2.66 2.64 3.32 5.28 4 8 C3.01 8.495 3.01 8.495 2 9 C0.50178941 5.62902617 0 3.79557881 0 0 Z " fill="#D6D59E" transform="translate(779,764)"/>
<path d="M0 0 C1.98 0.99 1.98 0.99 4 2 C4 3.65 4 5.3 4 7 C3.34 7 2.68 7 2 7 C1.34 4.69 0.68 2.38 0 0 Z " fill="#978243" transform="translate(694,558)"/>
<path d="M0 0 C1.77706209 2.66559313 2.87548273 5.0280615 4 8 C3.01 8.33 2.02 8.66 1 9 C-0.4783226 6.04335481 -0.06032783 3.25770263 0 0 Z " fill="#F1F1B3" transform="translate(703,598)"/>
<path d="M0 0 C0.66 0.66 1.32 1.32 2 2 C1.9765625 4.1640625 1.9765625 4.1640625 1.625 6.625 C1.51414062 7.44226563 1.40328125 8.25953125 1.2890625 9.1015625 C1.19367187 9.72804688 1.09828125 10.35453125 1 11 C0.67 11 0.34 11 0 11 C-0.19406478 9.35492782 -0.38007935 7.70890406 -0.5625 6.0625 C-0.66691406 5.14597656 -0.77132812 4.22945312 -0.87890625 3.28515625 C-0.91886719 2.53105469 -0.95882812 1.77695312 -1 1 C-0.67 0.67 -0.34 0.34 0 0 Z " fill="#8D7D42" transform="translate(701,573)"/>
</svg>
